<svg width="18" height="18" viewBox="0 0 18 18" fill="none" xmlns="http://www.w3.org/2000/svg">
<path d="M2.28571 17.4341H4V17.9965H2.28571C1.025 17.9965 0 16.9877 0 15.7469V2.24956C0 1.00879 1.025 0 2.28571 0H7.28929C7.74286 0 8.17857 0.179262 8.5 0.495606L13.2107 5.1283C13.5321 5.44464 13.7143 5.87346 13.7143 6.31986V10.6854H13.1429V6.32337C13.1429 6.27768 13.1393 6.23199 13.1357 6.18629H8.85714C8.06786 6.18629 7.42857 5.55712 7.42857 4.78032V0.56942C7.38214 0.56239 7.33571 0.56239 7.28929 0.56239H2.28571C1.33929 0.56239 0.571429 1.3181 0.571429 2.24956V15.7469C0.571429 16.6784 1.33929 17.4341 2.28571 17.4341ZM12.8964 5.6239C12.8679 5.58875 12.8393 5.55712 12.8107 5.529L8.09643 0.892794C8.06429 0.86116 8.03214 0.83304 8 0.808436V4.78032C8 5.2478 8.38214 5.6239 8.85714 5.6239H12.8964ZM7.34643 12.935H8.28572C8.44286 12.935 8.57143 13.0615 8.57143 13.2162C8.57143 13.3708 8.44286 13.4974 8.28572 13.4974H7.34643C6.91786 13.4974 6.57143 13.8383 6.57143 14.2601C6.57143 14.5483 6.73571 14.812 7 14.942L8.11429 15.4903C8.57143 15.7153 8.85714 16.1722 8.85714 16.6749C8.85714 17.406 8.25357 18 7.51071 18H6.28571C6.12857 18 6 17.8735 6 17.7188C6 17.5641 6.12857 17.4376 6.28571 17.4376H7.51071C7.93929 17.4376 8.28572 17.0967 8.28572 16.6749C8.28572 16.3866 8.12143 16.123 7.85714 15.993L6.74286 15.4446C6.28929 15.2197 6 14.7592 6 14.2601C6 13.529 6.60357 12.935 7.34643 12.935ZM16.2857 12.935H16.8571C17.4893 12.935 18 13.4376 18 14.0598V14.341C18 14.4956 17.8714 14.6221 17.7143 14.6221C17.5571 14.6221 17.4286 14.4956 17.4286 14.341V14.0598C17.4286 13.7504 17.1714 13.4974 16.8571 13.4974H16.2857C15.9714 13.4974 15.7143 13.7504 15.7143 14.0598V16.8717C15.7143 17.181 15.9714 17.4341 16.2857 17.4341H16.8571C17.1714 17.4341 17.4286 17.181 17.4286 16.8717V16.3093H17.1429C16.9857 16.3093 16.8571 16.1828 16.8571 16.0281C16.8571 15.8735 16.9857 15.7469 17.1429 15.7469H17.7143C17.8714 15.7469 18 15.8735 18 16.0281V16.8717C18 17.4939 17.4893 17.9965 16.8571 17.9965H16.2857C15.6536 17.9965 15.1429 17.4939 15.1429 16.8717V14.0598C15.1429 13.4376 15.6536 12.935 16.2857 12.935ZM10.8571 12.935C11.0143 12.935 11.1429 13.0615 11.1429 13.2162V14.3269C11.1429 15.3497 11.4393 16.348 12 17.2091C12.5607 16.348 12.8571 15.3497 12.8571 14.3269V13.2162C12.8571 13.0615 12.9857 12.935 13.1429 12.935C13.3 12.935 13.4286 13.0615 13.4286 13.2162V14.3269C13.4286 15.4939 13.0786 16.6327 12.4214 17.6028L12.2393 17.8735C12.1857 17.9508 12.0964 18 12 18C11.9036 18 11.8143 17.9543 11.7607 17.8735L11.5786 17.6028C10.9214 16.6327 10.5714 15.4939 10.5714 14.3269V13.2162C10.5714 13.0615 10.7 12.935 10.8571 12.935Z" fill="white"/>
</svg>
