<svg width="1000" height="650" xmlns="http://www.w3.org/2000/svg" xmlns:xlink="http://www.w3.org/1999/xlink" version="1.1" baseProfile="full" viewBox="0 0 1000 650">
<rect width="1000" height="650" x="0" y="0" id="0" fill="#FFFFFF"></rect>
<polyline points="718.6 154.8 729.9 145 744.9 145" fill="none" stroke="#009bd7"></polyline>
<polyline points="658 587.9 666.2 600.4 681.2 600.4" fill="none" stroke="#f0a82d"></polyline>
<polyline points="237.6 467.9 224 474.2 209 474.2" fill="none" stroke="#e95000"></polyline>
<polyline points="342 102.1 333.8 89.6 318.8 89.6" fill="none" stroke="#af46a8"></polyline>
<path d="M500 55.25A289.75 289.75 0 0 1 786.9562 385.1398L500 345Z" fill="#009bd7" stroke="#FFFFFF" stroke-width="2" stroke-linejoin="round"></path>
<path d="M786.9562 385.1398A289.75 289.75 0 0 1 420.4944 623.6287L500 345Z" fill="rgb(240,168,45)" stroke="#FFFFFF" stroke-width="2" stroke-linejoin="round"></path>
<path d="M420.4944 623.6287A289.75 289.75 0 0 1 235.072 227.6619L500 345Z" fill="rgb(233,80,0)" stroke="#FFFFFF" stroke-width="2" stroke-linejoin="round"></path>
<path d="M235.072 227.6619A289.75 289.75 0 0 1 500 55.25L500 345Z" fill="#af46a8" stroke="#FFFFFF" stroke-width="2" stroke-linejoin="round"></path>
<text dominant-baseline="central" text-anchor="start" style="font-size:12px;font-family:sans-serif;" transform="translate(749.9331 144.9916)" fill="#333" stroke="rgb(255,255,255)" stroke-width="2" paint-order="stroke" stroke-miterlimit="2">Premiere_Year</text>
<text dominant-baseline="central" text-anchor="start" style="font-size:12px;font-family:sans-serif;" transform="translate(686.2266 600.4237)" fill="#333" stroke="rgb(255,255,255)" stroke-width="2" paint-order="stroke" stroke-miterlimit="2">Seasons</text>
<text dominant-baseline="central" text-anchor="end" style="font-size:12px;font-family:sans-serif;" transform="translate(204.0113 474.2393)" fill="#333" stroke="rgb(255,255,255)" stroke-width="2" paint-order="stroke" stroke-miterlimit="2">Episodes</text>
<text dominant-baseline="central" text-anchor="end" style="font-size:12px;font-family:sans-serif;" transform="translate(313.7734 89.5763)" fill="#333" stroke="rgb(255,255,255)" stroke-width="2" paint-order="stroke" stroke-miterlimit="2">IMDB_Rating</text>
<path d="M-5 -5l410.9 0l0 26l-410.9 0Z" transform="translate(299.55 25)" fill="rgb(0,0,0)" fill-opacity="0" stroke="#ccc" stroke-width="0"></path>
<path d="M3.5 0L21.5 0A3.5 3.5 0 0 1 25 3.5L25 10.5A3.5 3.5 0 0 1 21.5 14L3.5 14A3.5 3.5 0 0 1 0 10.5L0 3.5A3.5 3.5 0 0 1 3.5 0" transform="translate(300.55 26)" fill="#009bd7" stroke="#FFFFFF" stroke-width="2" stroke-linecap="butt" stroke-miterlimit="10" stroke-linejoin="round"></path>
<text dominant-baseline="central" text-anchor="start" style="font-size:12px;font-family:sans-serif;" x="30" y="7" transform="translate(300.55 26)" fill="#333">Premiere_Year</text>
<path d="M3.5 0L21.5 0A3.5 3.5 0 0 1 25 3.5L25 10.5A3.5 3.5 0 0 1 21.5 14L3.5 14A3.5 3.5 0 0 1 0 10.5L0 3.5A3.5 3.5 0 0 1 3.5 0" transform="translate(421.1167 26)" fill="#f0a82d" stroke="#FFFFFF" stroke-width="2" stroke-linecap="butt" stroke-miterlimit="10" stroke-linejoin="round"></path>
<text dominant-baseline="central" text-anchor="start" style="font-size:12px;font-family:sans-serif;" x="30" y="7" transform="translate(421.1167 26)" fill="#333">Seasons</text>
<path d="M3.5 0L21.5 0A3.5 3.5 0 0 1 25 3.5L25 10.5A3.5 3.5 0 0 1 21.5 14L3.5 14A3.5 3.5 0 0 1 0 10.5L0 3.5A3.5 3.5 0 0 1 3.5 0" transform="translate(508.7833 26)" fill="#e95000" stroke="#FFFFFF" stroke-width="2" stroke-linecap="butt" stroke-miterlimit="10" stroke-linejoin="round"></path>
<text dominant-baseline="central" text-anchor="start" style="font-size:12px;font-family:sans-serif;" x="30" y="7" transform="translate(508.7833 26)" fill="#333">Episodes</text>
<path d="M3.5 0L21.5 0A3.5 3.5 0 0 1 25 3.5L25 10.5A3.5 3.5 0 0 1 21.5 14L3.5 14A3.5 3.5 0 0 1 0 10.5L0 3.5A3.5 3.5 0 0 1 3.5 0" transform="translate(599.1167 26)" fill="#af46a8" stroke="#FFFFFF" stroke-width="2" stroke-linecap="butt" stroke-miterlimit="10" stroke-linejoin="round"></path>
<text dominant-baseline="central" text-anchor="start" style="font-size:12px;font-family:sans-serif;" x="30" y="7" transform="translate(599.1167 26)" fill="#333">IMDB_Rating</text>
</svg>