<svg width="1072" height="659" xmlns="http://www.w3.org/2000/svg" xmlns:xlink="http://www.w3.org/1999/xlink" version="1.1" baseProfile="full" viewBox="0 0 1072 659">
<rect width="1072" height="659" x="0" y="0" id="0" fill="none"></rect>
<path d="M70.1893 619.5L1029.12 619.5" fill="none" stroke="#E0E6F1"></path>
<path d="M70.1893 526.5L1029.12 526.5" fill="none" stroke="#E0E6F1"></path>
<path d="M70.1893 433.5L1029.12 433.5" fill="none" stroke="#E0E6F1"></path>
<path d="M70.1893 339.5L1029.12 339.5" fill="none" stroke="#E0E6F1"></path>
<path d="M70.1893 246.5L1029.12 246.5" fill="none" stroke="#E0E6F1"></path>
<path d="M70.1893 153.5L1029.12 153.5" fill="none" stroke="#E0E6F1"></path>
<path d="M70.1893 60.5L1029.12 60.5" fill="none" stroke="#E0E6F1"></path>
<path d="M70.1893 619.5L1029.12 619.5" fill="none" stroke="#6E7079" stroke-linecap="round"></path>
<path d="M70.5 619.23L70.5 624.23" fill="none" stroke="#6E7079"></path>
<path d="M230.5 619.23L230.5 624.23" fill="none" stroke="#6E7079"></path>
<path d="M390.5 619.23L390.5 624.23" fill="none" stroke="#6E7079"></path>
<path d="M549.5 619.23L549.5 624.23" fill="none" stroke="#6E7079"></path>
<path d="M709.5 619.23L709.5 624.23" fill="none" stroke="#6E7079"></path>
<path d="M869.5 619.23L869.5 624.23" fill="none" stroke="#6E7079"></path>
<path d="M1029.5 619.23L1029.5 624.23" fill="none" stroke="#6E7079"></path>
<text dominant-baseline="central" text-anchor="end" style="font-size:12px;font-family:sans-serif;" transform="translate(62.1893 619.23)" fill="#6E7079">0</text>
<text dominant-baseline="central" text-anchor="end" style="font-size:12px;font-family:sans-serif;" transform="translate(62.1893 526.025)" fill="#6E7079">500</text>
<text dominant-baseline="central" text-anchor="end" style="font-size:12px;font-family:sans-serif;" transform="translate(62.1893 432.82)" fill="#6E7079">1,000</text>
<text dominant-baseline="central" text-anchor="end" style="font-size:12px;font-family:sans-serif;" transform="translate(62.1893 339.615)" fill="#6E7079">1,500</text>
<text dominant-baseline="central" text-anchor="end" style="font-size:12px;font-family:sans-serif;" transform="translate(62.1893 246.41)" fill="#6E7079">2,000</text>
<text dominant-baseline="central" text-anchor="end" style="font-size:12px;font-family:sans-serif;" transform="translate(62.1893 153.205)" fill="#6E7079">2,500</text>
<text dominant-baseline="central" text-anchor="end" style="font-size:12px;font-family:sans-serif;" transform="translate(62.1893 60)" fill="#6E7079">3,000</text>
<text dominant-baseline="central" text-anchor="middle" style="font-size:12px;font-family:sans-serif;" y="6" transform="translate(70.1893 627.23)" fill="#6E7079">Mon</text>
<text dominant-baseline="central" text-anchor="middle" style="font-size:12px;font-family:sans-serif;" y="6" transform="translate(230.0111 627.23)" fill="#6E7079">Tue</text>
<text dominant-baseline="central" text-anchor="middle" style="font-size:12px;font-family:sans-serif;" y="6" transform="translate(389.8329 627.23)" fill="#6E7079">Wed</text>
<text dominant-baseline="central" text-anchor="middle" style="font-size:12px;font-family:sans-serif;" y="6" transform="translate(549.6546 627.23)" fill="#6E7079">Thu</text>
<text dominant-baseline="central" text-anchor="middle" style="font-size:12px;font-family:sans-serif;" y="6" transform="translate(709.4764 627.23)" fill="#6E7079">Fri</text>
<text dominant-baseline="central" text-anchor="middle" style="font-size:12px;font-family:sans-serif;" y="6" transform="translate(869.2982 627.23)" fill="#6E7079">Sat</text>
<text dominant-baseline="central" text-anchor="middle" style="font-size:12px;font-family:sans-serif;" y="6" transform="translate(1029.12 627.23)" fill="#6E7079">Sun</text>
<g clip-path="url(#zr4-c0)">
<path d="M70.1893 596.8608L230.0111 594.6239L389.8329 600.4026L549.6547 594.251L709.4764 602.4531L869.2982 576.3557L1029.12 580.0839" fill="none" stroke="rgb(84,112,198)" stroke-width="2" stroke-linejoin="bevel"></path>
</g>
<g clip-path="url(#zr4-c1)">
<path d="M70.1893 555.8506L230.0111 560.6973L389.8329 564.7983L549.6547 550.6311L709.4764 548.3942L869.2982 514.8404L1029.12 522.2968" fill="none" stroke="rgb(145,204,117)" stroke-width="2" stroke-linejoin="bevel"></path>
</g>
<g clip-path="url(#zr4-c2)">
<path d="M70.1893 527.8891L230.0111 517.4501L389.8329 527.3299L549.6547 521.924L709.4764 512.9763L869.2982 453.3251L1029.12 445.8687" fill="none" stroke="rgb(250,200,88)" stroke-width="2" stroke-linejoin="bevel"></path>
</g>
<g clip-path="url(#zr4-c3)">
<path d="M70.1893 468.2379L230.0111 455.562L389.8329 471.2205L549.6547 459.663L709.4764 440.2764L869.2982 391.8098L1029.12 386.2175" fill="none" stroke="rgb(238,102,102)" stroke-width="2" stroke-linejoin="bevel"></path>
</g>
<g clip-path="url(#zr4-c4)">
<path d="M70.1893 315.3817L230.0111 281.8279L389.8329 303.265L549.6547 285.5561L709.4764 199.8075L869.2982 143.8845L1029.12 140.1563" fill="none" stroke="rgb(115,192,222)" stroke-width="2" stroke-linejoin="bevel"></path>
</g>
<path d="M1 0A1 1 0 1 1 1 -0.0001" transform="matrix(2,0,0,2,70.1893,596.8608)" fill="rgb(255,255,255)" stroke="#5470c6"></path>
<path d="M1 0A1 1 0 1 1 1 -0.0001" transform="matrix(2,0,0,2,230.0111,594.6239)" fill="rgb(255,255,255)" stroke="#5470c6"></path>
<path d="M1 0A1 1 0 1 1 1 -0.0001" transform="matrix(2,0,0,2,389.8329,600.4026)" fill="rgb(255,255,255)" stroke="#5470c6"></path>
<path d="M1 0A1 1 0 1 1 1 -0.0001" transform="matrix(2,0,0,2,549.6547,594.251)" fill="rgb(255,255,255)" stroke="#5470c6"></path>
<path d="M1 0A1 1 0 1 1 1 -0.0001" transform="matrix(2,0,0,2,709.4764,602.4531)" fill="rgb(255,255,255)" stroke="#5470c6"></path>
<path d="M1 0A1 1 0 1 1 1 -0.0001" transform="matrix(2,0,0,2,869.2982,576.3557)" fill="rgb(255,255,255)" stroke="#5470c6"></path>
<path d="M1 0A1 1 0 1 1 1 -0.0001" transform="matrix(2,0,0,2,1029.12,580.0839)" fill="rgb(255,255,255)" stroke="#5470c6"></path>
<path d="M1 0A1 1 0 1 1 1 -0.0001" transform="matrix(2,0,0,2,70.1893,555.8506)" fill="rgb(255,255,255)" stroke="#91cc75"></path>
<path d="M1 0A1 1 0 1 1 1 -0.0001" transform="matrix(2,0,0,2,230.0111,560.6973)" fill="rgb(255,255,255)" stroke="#91cc75"></path>
<path d="M1 0A1 1 0 1 1 1 -0.0001" transform="matrix(2,0,0,2,389.8329,564.7983)" fill="rgb(255,255,255)" stroke="#91cc75"></path>
<path d="M1 0A1 1 0 1 1 1 -0.0001" transform="matrix(2,0,0,2,549.6547,550.6311)" fill="rgb(255,255,255)" stroke="#91cc75"></path>
<path d="M1 0A1 1 0 1 1 1 -0.0001" transform="matrix(2,0,0,2,709.4764,548.3942)" fill="rgb(255,255,255)" stroke="#91cc75"></path>
<path d="M1 0A1 1 0 1 1 1 -0.0001" transform="matrix(2,0,0,2,869.2982,514.8404)" fill="rgb(255,255,255)" stroke="#91cc75"></path>
<path d="M1 0A1 1 0 1 1 1 -0.0001" transform="matrix(2,0,0,2,1029.12,522.2968)" fill="rgb(255,255,255)" stroke="#91cc75"></path>
<path d="M1 0A1 1 0 1 1 1 -0.0001" transform="matrix(2,0,0,2,70.1893,527.8891)" fill="rgb(255,255,255)" stroke="#fac858"></path>
<path d="M1 0A1 1 0 1 1 1 -0.0001" transform="matrix(2,0,0,2,230.0111,517.4501)" fill="rgb(255,255,255)" stroke="#fac858"></path>
<path d="M1 0A1 1 0 1 1 1 -0.0001" transform="matrix(2,0,0,2,389.8329,527.3299)" fill="rgb(255,255,255)" stroke="#fac858"></path>
<path d="M1 0A1 1 0 1 1 1 -0.0001" transform="matrix(2,0,0,2,549.6547,521.924)" fill="rgb(255,255,255)" stroke="#fac858"></path>
<path d="M1 0A1 1 0 1 1 1 -0.0001" transform="matrix(2,0,0,2,709.4764,512.9763)" fill="rgb(255,255,255)" stroke="#fac858"></path>
<path d="M1 0A1 1 0 1 1 1 -0.0001" transform="matrix(2,0,0,2,869.2982,453.3251)" fill="rgb(255,255,255)" stroke="#fac858"></path>
<path d="M1 0A1 1 0 1 1 1 -0.0001" transform="matrix(2,0,0,2,1029.12,445.8687)" fill="rgb(255,255,255)" stroke="#fac858"></path>
<path d="M1 0A1 1 0 1 1 1 -0.0001" transform="matrix(2,0,0,2,70.1893,468.2379)" fill="rgb(255,255,255)" stroke="#ee6666"></path>
<path d="M1 0A1 1 0 1 1 1 -0.0001" transform="matrix(2,0,0,2,230.0111,455.562)" fill="rgb(255,255,255)" stroke="#ee6666"></path>
<path d="M1 0A1 1 0 1 1 1 -0.0001" transform="matrix(2,0,0,2,389.8329,471.2205)" fill="rgb(255,255,255)" stroke="#ee6666"></path>
<path d="M1 0A1 1 0 1 1 1 -0.0001" transform="matrix(2,0,0,2,549.6547,459.663)" fill="rgb(255,255,255)" stroke="#ee6666"></path>
<path d="M1 0A1 1 0 1 1 1 -0.0001" transform="matrix(2,0,0,2,709.4764,440.2764)" fill="rgb(255,255,255)" stroke="#ee6666"></path>
<path d="M1 0A1 1 0 1 1 1 -0.0001" transform="matrix(2,0,0,2,869.2982,391.8098)" fill="rgb(255,255,255)" stroke="#ee6666"></path>
<path d="M1 0A1 1 0 1 1 1 -0.0001" transform="matrix(2,0,0,2,1029.12,386.2175)" fill="rgb(255,255,255)" stroke="#ee6666"></path>
<path d="M1 0A1 1 0 1 1 1 -0.0001" transform="matrix(2,0,0,2,70.1893,315.3817)" fill="rgb(255,255,255)" stroke="#73c0de"></path>
<path d="M1 0A1 1 0 1 1 1 -0.0001" transform="matrix(2,0,0,2,230.0111,281.8279)" fill="rgb(255,255,255)" stroke="#73c0de"></path>
<path d="M1 0A1 1 0 1 1 1 -0.0001" transform="matrix(2,0,0,2,389.8329,303.265)" fill="rgb(255,255,255)" stroke="#73c0de"></path>
<path d="M1 0A1 1 0 1 1 1 -0.0001" transform="matrix(2,0,0,2,549.6547,285.5561)" fill="rgb(255,255,255)" stroke="#73c0de"></path>
<path d="M1 0A1 1 0 1 1 1 -0.0001" transform="matrix(2,0,0,2,709.4764,199.8075)" fill="rgb(255,255,255)" stroke="#73c0de"></path>
<path d="M1 0A1 1 0 1 1 1 -0.0001" transform="matrix(2,0,0,2,869.2982,143.8845)" fill="rgb(255,255,255)" stroke="#73c0de"></path>
<path d="M1 0A1 1 0 1 1 1 -0.0001" transform="matrix(2,0,0,2,1029.12,140.1563)" fill="rgb(255,255,255)" stroke="#73c0de"></path>
<path d="M-5 -5l10 0l0 10l-10 0Z" transform="translate(536 5)" fill="rgb(0,0,0)" fill-opacity="0" stroke="#ccc" stroke-width="0"></path>
<path d="M-5 -5l57.0127 0l0 28l-57.0127 0Z" transform="translate(5 5)" fill="rgb(0,0,0)" fill-opacity="0" stroke="#ccc" stroke-width="0"></path>
<defs >
<clipPath id="zr4-c0">
<path d="M69 59l961 0l0 561.23l-961 0Z" fill="#000"></path>
</clipPath>
<clipPath id="zr4-c1">
<path d="M69 59l961 0l0 561.23l-961 0Z" fill="#000"></path>
</clipPath>
<clipPath id="zr4-c2">
<path d="M69 59l961 0l0 561.23l-961 0Z" fill="#000"></path>
</clipPath>
<clipPath id="zr4-c3">
<path d="M69 59l961 0l0 561.23l-961 0Z" fill="#000"></path>
</clipPath>
<clipPath id="zr4-c4">
<path d="M69 59l961 0l0 561.23l-961 0Z" fill="#000"></path>
</clipPath>
</defs>
</svg>