<?xml version="1.0" encoding="UTF-8" standalone="no"?>
<svg id="rawgraphs-icons" xmlns="http://www.w3.org/2000/svg" width="56" height="56" viewBox="0 0 56 56">
  <defs>
    <style>       
      .cls-1 {
        fill: #95e5c0;
      }

      .cls-2 {
        fill: #06c26c;
      }
    </style>
  </defs>
  <g
     id="secundary">
    <path
       class="cls-1"
       d="m 20.008633,26.187409 -5.083877,-4.79948 A 20.0207,20.0207 0 0 0 9.8171245,33.91415 L 16.82011,33.8488 a 13.0486,13.0486 0 0 1 3.188524,-7.661384 z"
       id="path6" />
    <path
       class="cls-2"
       d="m 20.616852,25.69486 a 12.915,12.915 0 0 1 1.860704,-1.327791 l -3.340044,-6.15728 a 20.1278,20.1278 0 0 0 -3.486932,2.551584 z"
       id="path16" />
    <path
       class="cls-1"
       d="m 25.106754,23.169942 a 12.9119,12.9119 0 0 1 4.705486,-0.598378 l 0.649116,-6.976868 a 19.8067,19.8067 0 0 0 -10.446402,2.134997 l 3.344618,6.165575 a 12.9706,12.9706 0 0 1 1.747182,-0.725326 z"
       id="path18" />
    <path
       class="cls-2"
       d="m 41.476262,31.538885 a 12.9514,12.9514 0 0 1 0.575839,2.940062 l 7.005554,-0.03238 A 19.8792,19.8792 0 0 0 31.456567,15.693237 l -0.649023,6.97358 a 13.0035,13.0035 0 0 1 10.668718,8.872068 z"
       id="path20" />
  </g>
</svg>
