<svg width="953" height="794" xmlns="http://www.w3.org/2000/svg" xmlns:xlink="http://www.w3.org/1999/xlink" version="1.1" baseProfile="full" viewBox="0 0 953 794">
<rect width="953" height="794" x="0" y="0" id="0" fill="none"></rect>
<path d="M0 0l762.4 0l0 635.2l-762.4 0Z" transform="translate(95.3 79.4)" fill="#fff"></path>
<path d="M0 0l366.2435 0l0 443.2467l-366.2435 0Z" transform="translate(95.3 79.4)" fill="#fff"></path>
<path d="M0 0l366.2435 0l0 186.9533l-366.2435 0Z" transform="translate(95.3 527.6467)" fill="#fff"></path>
<path d="M0 0l228.3152 0l0 271.3472l-228.3152 0Z" transform="translate(466.5435 79.4)" fill="#fff"></path>
<path d="M0 0l157.8412 0l0 271.3472l-157.8412 0Z" transform="translate(699.8588 79.4)" fill="#fff"></path>
<path d="M0 0l245.3076 0l0 170.8508l-245.3076 0Z" transform="translate(466.5435 355.7472)" fill="#fff"></path>
<path d="M0 0l245.3076 0l0 94.5695l-245.3076 0Z" transform="translate(466.5435 531.5979)" fill="#fff"></path>
<path d="M0 0l245.3076 0l0 83.4326l-245.3076 0Z" transform="translate(466.5435 631.1674)" fill="#fff"></path>
<path d="M0 0l80.1688 0l0 119.6876l-80.1688 0Z" transform="translate(716.8511 355.7472)" fill="#fff"></path>
<path d="M0 0l55.6801 0l0 119.6876l-55.6801 0Z" transform="translate(802.0199 355.7472)" fill="#fff"></path>
<path d="M0 0l70.5704 0l0 78.3201l-70.5704 0Z" transform="translate(716.8511 480.4347)" fill="#fff"></path>
<path d="M0 0l65.2785 0l0 78.3201l-65.2785 0Z" transform="translate(792.4215 480.4347)" fill="#fff"></path>
<path d="M0 0l67.9819 0l0 63.9286l-67.9819 0Z" transform="translate(716.8511 563.7549)" fill="#fff"></path>
<path d="M0 0l32.7741 0l0 63.9286l-32.7741 0Z" transform="translate(789.833 563.7549)" fill="#fff"></path>
<path d="M0 0l30.0929 0l0 63.9286l-30.0929 0Z" transform="translate(827.6071 563.7549)" fill="#fff"></path>
<path d="M0 0l45.6026 0l0 42.3323l-45.6026 0Z" transform="translate(716.8511 632.6835)" fill="#fff"></path>
<path d="M0 0l45.6026 0l0 34.5842l-45.6026 0Z" transform="translate(716.8511 680.0158)" fill="#fff"></path>
<path d="M0 0l40.0031 0l0 38.7272l-40.0031 0Z" transform="translate(767.4537 632.6835)" fill="#fff"></path>
<path d="M0 0l40.0031 0l0 38.1894l-40.0031 0Z" transform="translate(767.4537 676.4106)" fill="#fff"></path>
<path d="M0 0l22.8942 0l0 42.2944l-22.8942 0Z" transform="translate(812.4569 632.6835)" fill="#fff"></path>
<path d="M0 0l17.3489 0l0 42.2944l-17.3489 0Z" transform="translate(840.3511 632.6835)" fill="#fff"></path>
<path d="M0 0l21.1544 0l0 8.7794l-21.1544 0Z" transform="translate(812.4569 679.9778)" fill="#fff"></path>
<path d="M0 0l21.1544 0l0 8.2747l-21.1544 0Z" transform="translate(812.4569 693.7573)" fill="#fff"></path>
<path d="M0 0l21.1544 0l0 7.568l-21.1544 0Z" transform="translate(812.4569 707.032)" fill="#fff"></path>
<path d="M0 0l7.0609 0l0 21.5244l-7.0609 0Z" transform="translate(838.6113 679.9778)" fill="#fff"></path>
<path d="M0 0l7.0278 0l0 21.5244l-7.0278 0Z" transform="translate(850.6722 679.9778)" fill="#fff"></path>
<path d="M0 0l19.0887 0l0 8.0978l-19.0887 0Z" transform="translate(838.6113 706.5022)" fill="#fff"></path>
<path d="M0 0l245.3076 0l0 83.4326l-245.3076 0Z" transform="translate(466.5435 631.1674)" fill="#fc8452"></path>
<path d="M0 0l67.9819 0l0 63.9286l-67.9819 0Z" transform="translate(716.8511 563.7549)" fill="#fac858"></path>
<path d="M0 0l21.1544 0l0 8.7794l-21.1544 0Z" transform="translate(812.4569 679.9778)" fill="#fac858"></path>
<path d="M0 0l21.1544 0l0 8.2747l-21.1544 0Z" transform="translate(812.4569 693.7573)" fill="#ee6666"></path>
<path d="M0 0l21.1544 0l0 7.568l-21.1544 0Z" transform="translate(812.4569 707.032)" fill="#73c0de"></path>
<path d="M0 0l7.0609 0l0 21.5244l-7.0609 0Z" transform="translate(838.6113 679.9778)" fill="#3ba272"></path>
<path d="M0 0l7.0278 0l0 21.5244l-7.0278 0Z" transform="translate(850.6722 679.9778)" fill="#fc8452"></path>
<path d="M0 0l19.0887 0l0 8.0978l-19.0887 0Z" transform="translate(838.6113 706.5022)" fill="#9a60b4"></path>
<path d="M0 0l366.2435 0l0 440.4602l-366.2435 0Z" transform="translate(95.3 79.4)" fill="rgb(102,127,204)"></path>
<path d="M0 0l257.7116 0l0 1.7865l-257.7116 0Z" transform="translate(95.3 520.8602)" fill="rgb(102,127,204)"></path>
<path d="M0 0l107.5319 0l0 1.7865l-107.5319 0Z" transform="translate(354.0116 520.8602)" fill="rgb(102,127,204)"></path>
<path d="M0 0l125.5469 0l0 116.1533l-125.5469 0Z" transform="translate(95.3 527.6467)" fill="rgb(136,200,106)"></path>
<path d="M0 0l125.5469 0l0 69.8l-125.5469 0Z" transform="translate(95.3 644.8)" fill="rgb(136,200,106)"></path>
<path d="M0 0l91.2992 0l0 94.6089l-91.2992 0Z" transform="translate(221.8469 527.6467)" fill="rgb(136,200,106)"></path>
<path d="M0 0l91.2992 0l0 53.7943l-91.2992 0Z" transform="translate(221.8469 623.2556)" fill="rgb(136,200,106)"></path>
<path d="M0 0l91.2992 0l0 36.55l-91.2992 0Z" transform="translate(221.8469 678.05)" fill="rgb(136,200,106)"></path>
<path d="M0 0l50.109 0l0 56.9719l-50.109 0Z" transform="translate(314.1461 527.6467)" fill="rgb(136,200,106)"></path>
<path d="M0 0l49.5332 0l0 56.9719l-49.5332 0Z" transform="translate(365.2551 527.6467)" fill="rgb(136,200,106)"></path>
<path d="M0 0l45.7552 0l0 56.9719l-45.7552 0Z" transform="translate(415.7883 527.6467)" fill="rgb(136,200,106)"></path>
<path d="M0 0l49.4895 0l0 39.0006l-49.4895 0Z" transform="translate(314.1461 585.6185)" fill="rgb(136,200,106)"></path>
<path d="M0 0l49.4895 0l0 31.9459l-49.4895 0Z" transform="translate(314.1461 625.6191)" fill="rgb(136,200,106)"></path>
<path d="M0 0l49.4895 0l0 28.8125l-49.4895 0Z" transform="translate(314.1461 658.565)" fill="rgb(136,200,106)"></path>
<path d="M0 0l49.4895 0l0 26.2225l-49.4895 0Z" transform="translate(314.1461 688.3775)" fill="rgb(136,200,106)"></path>
<path d="M0 0l26.7284 0l0 46.3917l-26.7284 0Z" transform="translate(364.6356 585.6185)" fill="rgb(136,200,106)"></path>
<path d="M0 0l23.4673 0l0 46.3917l-23.4673 0Z" transform="translate(392.3639 585.6185)" fill="rgb(136,200,106)"></path>
<path d="M0 0l22.6376 0l0 46.3917l-22.6376 0Z" transform="translate(416.8313 585.6185)" fill="rgb(136,200,106)"></path>
<path d="M0 0l21.0746 0l0 46.3917l-21.0746 0Z" transform="translate(440.4689 585.6185)" fill="rgb(136,200,106)"></path>
<path d="M0 0l35.1515 0l0 26.3824l-35.1515 0Z" transform="translate(364.6356 633.0102)" fill="rgb(136,200,106)"></path>
<path d="M0 0l35.1515 0l0 20.0079l-35.1515 0Z" transform="translate(364.6356 660.3926)" fill="rgb(136,200,106)"></path>
<path d="M0 0l35.1515 0l0 18.6799l-35.1515 0Z" transform="translate(364.6356 681.4005)" fill="rgb(136,200,106)"></path>
<path d="M0 0l35.1515 0l0 13.5196l-35.1515 0Z" transform="translate(364.6356 701.0804)" fill="rgb(136,200,106)"></path>
<path d="M0 0l15.4177 0l0 28.4377l-15.4177 0Z" transform="translate(400.7871 633.0102)" fill="rgb(136,200,106)"></path>
<path d="M0 0l14.5634 0l0 28.4377l-14.5634 0Z" transform="translate(417.2047 633.0102)" fill="rgb(136,200,106)"></path>
<path d="M0 0l14.377 0l0 28.4377l-14.377 0Z" transform="translate(432.7681 633.0102)" fill="rgb(136,200,106)"></path>
<path d="M0 0l13.3985 0l0 28.4377l-13.3985 0Z" transform="translate(448.1451 633.0102)" fill="rgb(136,200,106)"></path>
<path d="M0 0l22.0888 0l0 17.0606l-22.0888 0Z" transform="translate(400.7871 662.4479)" fill="rgb(136,200,106)"></path>
<path d="M0 0l22.0888 0l0 16.9616l-22.0888 0Z" transform="translate(400.7871 680.5085)" fill="rgb(136,200,106)"></path>
<path d="M0 0l22.0888 0l0 16.1299l-22.0888 0Z" transform="translate(400.7871 698.4701)" fill="rgb(136,200,106)"></path>
<path d="M0 0l12.2766 0l0 27.7223l-12.2766 0Z" transform="translate(423.8758 662.4479)" fill="rgb(136,200,106)"></path>
<path d="M0 0l11.7672 0l0 27.7223l-11.7672 0Z" transform="translate(437.1524 662.4479)" fill="rgb(136,200,106)"></path>
<path d="M0 0l11.6239 0l0 27.7223l-11.6239 0Z" transform="translate(449.9196 662.4479)" fill="rgb(136,200,106)"></path>
<path d="M0 0l25.3524 0l0 11.4752l-25.3524 0Z" transform="translate(423.8758 691.1701)" fill="rgb(136,200,106)"></path>
<path d="M0 0l25.3524 0l0 10.9547l-25.3524 0Z" transform="translate(423.8758 703.6453)" fill="rgb(136,200,106)"></path>
<path d="M0 0l11.3153 0l0 23.4299l-11.3153 0Z" transform="translate(450.2283 691.1701)" fill="rgb(136,200,106)"></path>
<path d="M0 0l122.4273 0l0 108.8164l-122.4273 0Z" transform="translate(466.5435 79.4)" fill="rgb(249,190,57)"></path>
<path d="M0 0l72.6555 0l0 108.8164l-72.6555 0Z" transform="translate(589.9708 79.4)" fill="rgb(249,190,57)"></path>
<path d="M0 0l31.2325 0l0 108.8164l-31.2325 0Z" transform="translate(663.6262 79.4)" fill="rgb(249,190,57)"></path>
<path d="M0 0l65.9707 0l0 46.0088l-65.9707 0Z" transform="translate(466.5435 189.2164)" fill="rgb(249,190,57)"></path>
<path d="M0 0l65.9707 0l0 44.6522l-65.9707 0Z" transform="translate(466.5435 236.2252)" fill="rgb(249,190,57)"></path>
<path d="M0 0l65.9707 0l0 36.3652l-65.9707 0Z" transform="translate(466.5435 281.8774)" fill="rgb(249,190,57)"></path>
<path d="M0 0l65.9707 0l0 31.5046l-65.9707 0Z" transform="translate(466.5435 319.2426)" fill="rgb(249,190,57)"></path>
<path d="M0 0l37.0711 0l0 55.2513l-37.0711 0Z" transform="translate(533.5142 189.2164)" fill="rgb(249,190,57)"></path>
<path d="M0 0l36.2036 0l0 55.2513l-36.2036 0Z" transform="translate(571.5853 189.2164)" fill="rgb(249,190,57)"></path>
<path d="M0 0l33.4255 0l0 55.2513l-33.4255 0Z" transform="translate(608.7889 189.2164)" fill="rgb(249,190,57)"></path>
<path d="M0 0l26.7989 0l0 55.2513l-26.7989 0Z" transform="translate(643.2145 189.2164)" fill="rgb(249,190,57)"></path>
<path d="M0 0l23.8455 0l0 55.2513l-23.8455 0Z" transform="translate(671.0133 189.2164)" fill="rgb(249,190,57)"></path>
<path d="M0 0l42.6123 0l0 28.1173l-42.6123 0Z" transform="translate(533.5142 245.4677)" fill="rgb(249,190,57)"></path>
<path d="M0 0l42.6123 0l0 27.5102l-42.6123 0Z" transform="translate(533.5142 274.585)" fill="rgb(249,190,57)"></path>
<path d="M0 0l42.6123 0l0 24.2723l-42.6123 0Z" transform="translate(533.5142 303.0953)" fill="rgb(249,190,57)"></path>
<path d="M0 0l42.6123 0l0 22.3796l-42.6123 0Z" transform="translate(533.5142 328.3676)" fill="rgb(249,190,57)"></path>
<path d="M0 0l37.6395 0l0 24.6226l-37.6395 0Z" transform="translate(577.1265 245.4677)" fill="rgb(249,190,57)"></path>
<path d="M0 0l37.6395 0l0 21.4248l-37.6395 0Z" transform="translate(577.1265 271.0903)" fill="rgb(249,190,57)"></path>
<path d="M0 0l37.6395 0l0 19.7185l-37.6395 0Z" transform="translate(577.1265 293.5152)" fill="rgb(249,190,57)"></path>
<path d="M0 0l37.6395 0l0 17.9986l-37.6395 0Z" transform="translate(577.1265 314.2336)" fill="rgb(249,190,57)"></path>
<path d="M0 0l37.6395 0l0 17.5149l-37.6395 0Z" transform="translate(577.1265 333.2322)" fill="rgb(249,190,57)"></path>
<path d="M0 0l20.0367 0l0 31.5269l-20.0367 0Z" transform="translate(615.766 245.4677)" fill="rgb(249,190,57)"></path>
<path d="M0 0l18.8556 0l0 31.5269l-18.8556 0Z" transform="translate(636.8028 245.4677)" fill="rgb(249,190,57)"></path>
<path d="M0 0l18.7598 0l0 31.5269l-18.7598 0Z" transform="translate(656.6584 245.4677)" fill="rgb(249,190,57)"></path>
<path d="M0 0l18.4406 0l0 31.5269l-18.4406 0Z" transform="translate(676.4182 245.4677)" fill="rgb(249,190,57)"></path>
<path d="M0 0l29.9446 0l0 18.5958l-29.9446 0Z" transform="translate(615.766 277.9946)" fill="rgb(249,190,57)"></path>
<path d="M0 0l29.9446 0l0 18.1764l-29.9446 0Z" transform="translate(615.766 297.5903)" fill="rgb(249,190,57)"></path>
<path d="M0 0l29.9446 0l0 16.8174l-29.9446 0Z" transform="translate(615.766 316.7667)" fill="rgb(249,190,57)"></path>
<path d="M0 0l29.9446 0l0 16.1631l-29.9446 0Z" transform="translate(615.766 334.5841)" fill="rgb(249,190,57)"></path>
<path d="M0 0l16.715 0l0 28.7461l-16.715 0Z" transform="translate(646.7106 277.9946)" fill="rgb(249,190,57)"></path>
<path d="M0 0l15.2664 0l0 28.7461l-15.2664 0Z" transform="translate(664.4256 277.9946)" fill="rgb(249,190,57)"></path>
<path d="M0 0l14.1668 0l0 28.7461l-14.1668 0Z" transform="translate(680.692 277.9946)" fill="rgb(249,190,57)"></path>
<path d="M0 0l25.4263 0l0 15.2667l-25.4263 0Z" transform="translate(646.7106 307.7407)" fill="rgb(249,190,57)"></path>
<path d="M0 0l25.4263 0l0 12.9288l-25.4263 0Z" transform="translate(646.7106 324.0074)" fill="rgb(249,190,57)"></path>
<path d="M0 0l25.4263 0l0 12.811l-25.4263 0Z" transform="translate(646.7106 337.9362)" fill="rgb(249,190,57)"></path>
<path d="M0 0l10.4639 0l0 29.2516l-10.4639 0Z" transform="translate(673.1369 307.7407)" fill="rgb(249,190,57)"></path>
<path d="M0 0l10.258 0l0 29.2516l-10.258 0Z" transform="translate(684.6008 307.7407)" fill="rgb(249,190,57)"></path>
<path d="M0 0l21.7219 0l0 12.7549l-21.7219 0Z" transform="translate(673.1369 337.9923)" fill="rgb(249,190,57)"></path>
<path d="M0 0l157.8412 0l0 128.077l-157.8412 0Z" transform="translate(699.8588 79.4)" fill="rgb(235,71,71)"></path>
<path d="M0 0l74.6145 0l0 54.6669l-74.6145 0Z" transform="translate(699.8588 208.477)" fill="rgb(235,71,71)"></path>
<path d="M0 0l74.6145 0l0 43.6374l-74.6145 0Z" transform="translate(699.8588 264.1439)" fill="rgb(235,71,71)"></path>
<path d="M0 0l74.6145 0l0 41.9659l-74.6145 0Z" transform="translate(699.8588 308.7813)" fill="rgb(235,71,71)"></path>
<path d="M0 0l36.7256 0l0 45.9801l-36.7256 0Z" transform="translate(775.4733 208.477)" fill="rgb(235,71,71)"></path>
<path d="M0 0l22.9072 0l0 45.9801l-22.9072 0Z" transform="translate(813.1989 208.477)" fill="rgb(235,71,71)"></path>
<path d="M0 0l20.5939 0l0 45.9801l-20.5939 0Z" transform="translate(837.1061 208.477)" fill="rgb(235,71,71)"></path>
<path d="M0 0l23.1822 0l0 39.8826l-23.1822 0Z" transform="translate(775.4733 255.4571)" fill="rgb(235,71,71)"></path>
<path d="M0 0l20.7933 0l0 39.8826l-20.7933 0Z" transform="translate(799.6555 255.4571)" fill="rgb(235,71,71)"></path>
<path d="M0 0l18.3809 0l0 39.8826l-18.3809 0Z" transform="translate(821.4488 255.4571)" fill="rgb(235,71,71)"></path>
<path d="M0 0l16.8703 0l0 39.8826l-16.8703 0Z" transform="translate(840.8297 255.4571)" fill="rgb(235,71,71)"></path>
<path d="M0 0l27.4018 0l0 19.0087l-27.4018 0Z" transform="translate(775.4733 296.3397)" fill="rgb(235,71,71)"></path>
<path d="M0 0l27.4018 0l0 17.0028l-27.4018 0Z" transform="translate(775.4733 316.3484)" fill="rgb(235,71,71)"></path>
<path d="M0 0l27.4018 0l0 16.396l-27.4018 0Z" transform="translate(775.4733 334.3512)" fill="rgb(235,71,71)"></path>
<path d="M0 0l17.921 0l0 21.9751l-17.921 0Z" transform="translate(803.8751 296.3397)" fill="rgb(235,71,71)"></path>
<path d="M0 0l17.2541 0l0 21.9751l-17.2541 0Z" transform="translate(822.796 296.3397)" fill="rgb(235,71,71)"></path>
<path d="M0 0l16.6498 0l0 21.9751l-16.6498 0Z" transform="translate(841.0502 296.3397)" fill="rgb(235,71,71)"></path>
<path d="M0 0l23.2535 0l0 15.305l-23.2535 0Z" transform="translate(803.8751 319.3148)" fill="rgb(235,71,71)"></path>
<path d="M0 0l23.2535 0l0 15.1274l-23.2535 0Z" transform="translate(803.8751 335.6198)" fill="rgb(235,71,71)"></path>
<path d="M0 0l15.7781 0l0 21.4568l-15.7781 0Z" transform="translate(828.1285 319.3148)" fill="rgb(235,71,71)"></path>
<path d="M0 0l12.7934 0l0 21.4568l-12.7934 0Z" transform="translate(844.9066 319.3148)" fill="rgb(235,71,71)"></path>
<path d="M0 0l29.5715 0l0 8.9756l-29.5715 0Z" transform="translate(828.1285 341.7716)" fill="rgb(235,71,71)"></path>
<path d="M0 0l100.314 0l0 85.0534l-100.314 0Z" transform="translate(466.5435 355.7472)" fill="rgb(90,181,216)"></path>
<path d="M0 0l100.314 0l0 84.7974l-100.314 0Z" transform="translate(466.5435 441.8006)" fill="rgb(90,181,216)"></path>
<path d="M0 0l44.148 0l0 65.07l-44.148 0Z" transform="translate(567.8576 355.7472)" fill="rgb(90,181,216)"></path>
<path d="M0 0l39.6246 0l0 65.07l-39.6246 0Z" transform="translate(613.0056 355.7472)" fill="rgb(90,181,216)"></path>
<path d="M0 0l32.6588 0l0 65.07l-32.6588 0Z" transform="translate(653.6302 355.7472)" fill="rgb(90,181,216)"></path>
<path d="M0 0l24.5622 0l0 65.07l-24.5622 0Z" transform="translate(687.289 355.7472)" fill="rgb(90,181,216)"></path>
<path d="M0 0l48.703 0l0 28.2925l-48.703 0Z" transform="translate(567.8576 421.8172)" fill="rgb(90,181,216)"></path>
<path d="M0 0l48.703 0l0 26.3717l-48.703 0Z" transform="translate(567.8576 451.1097)" fill="rgb(90,181,216)"></path>
<path d="M0 0l48.703 0l0 24.2003l-48.703 0Z" transform="translate(567.8576 478.4814)" fill="rgb(90,181,216)"></path>
<path d="M0 0l48.703 0l0 22.9163l-48.703 0Z" transform="translate(567.8576 503.6817)" fill="rgb(90,181,216)"></path>
<path d="M0 0l32.5721 0l0 34.1913l-32.5721 0Z" transform="translate(617.5605 421.8172)" fill="rgb(90,181,216)"></path>
<path d="M0 0l21.5583 0l0 34.1913l-21.5583 0Z" transform="translate(651.1327 421.8172)" fill="rgb(90,181,216)"></path>
<path d="M0 0l20.4083 0l0 34.1913l-20.4083 0Z" transform="translate(673.691 421.8172)" fill="rgb(90,181,216)"></path>
<path d="M0 0l16.7518 0l0 34.1913l-16.7518 0Z" transform="translate(695.0993 421.8172)" fill="rgb(90,181,216)"></path>
<path d="M0 0l33.4072 0l0 17.1262l-33.4072 0Z" transform="translate(617.5605 457.0085)" fill="rgb(90,181,216)"></path>
<path d="M0 0l33.4072 0l0 16.9301l-33.4072 0Z" transform="translate(617.5605 475.1346)" fill="rgb(90,181,216)"></path>
<path d="M0 0l33.4072 0l0 16.4476l-33.4072 0Z" transform="translate(617.5605 493.0648)" fill="rgb(90,181,216)"></path>
<path d="M0 0l33.4072 0l0 16.0856l-33.4072 0Z" transform="translate(617.5605 510.5123)" fill="rgb(90,181,216)"></path>
<path d="M0 0l17.402 0l0 30.4384l-17.402 0Z" transform="translate(651.9678 457.0085)" fill="rgb(90,181,216)"></path>
<path d="M0 0l13.8866 0l0 30.4384l-13.8866 0Z" transform="translate(670.3697 457.0085)" fill="rgb(90,181,216)"></path>
<path d="M0 0l13.7546 0l0 30.4384l-13.7546 0Z" transform="translate(685.2564 457.0085)" fill="rgb(90,181,216)"></path>
<path d="M0 0l11.8401 0l0 30.4384l-11.8401 0Z" transform="translate(700.011 457.0085)" fill="rgb(90,181,216)"></path>
<path d="M0 0l27.5598 0l0 13.098l-27.5598 0Z" transform="translate(651.9678 488.4469)" fill="rgb(90,181,216)"></path>
<path d="M0 0l27.5598 0l0 12.5166l-27.5598 0Z" transform="translate(651.9678 502.5449)" fill="rgb(90,181,216)"></path>
<path d="M0 0l27.5598 0l0 10.5364l-27.5598 0Z" transform="translate(651.9678 516.0616)" fill="rgb(90,181,216)"></path>
<path d="M0 0l15.1746 0l0 19.2417l-15.1746 0Z" transform="translate(680.5275 488.4469)" fill="rgb(90,181,216)"></path>
<path d="M0 0l15.149 0l0 19.2417l-15.149 0Z" transform="translate(696.7021 488.4469)" fill="rgb(90,181,216)"></path>
<path d="M0 0l15.4362 0l0 17.9094l-15.4362 0Z" transform="translate(680.5275 508.6886)" fill="rgb(90,181,216)"></path>
<path d="M0 0l14.8874 0l0 17.9094l-14.8874 0Z" transform="translate(696.9637 508.6886)" fill="rgb(90,181,216)"></path>
<path d="M0 0l113.7589 0l0 94.5695l-113.7589 0Z" transform="translate(466.5435 531.5979)" fill="rgb(105,201,156)"></path>
<path d="M0 0l52.8277 0l0 49.6146l-52.8277 0Z" transform="translate(581.3024 531.5979)" fill="rgb(105,201,156)"></path>
<path d="M0 0l52.8277 0l0 43.9549l-52.8277 0Z" transform="translate(581.3024 582.2126)" fill="rgb(105,201,156)"></path>
<path d="M0 0l28.9464 0l0 36.71l-28.9464 0Z" transform="translate(635.1301 531.5979)" fill="rgb(105,201,156)"></path>
<path d="M0 0l22.9372 0l0 36.71l-22.9372 0Z" transform="translate(665.0765 531.5979)" fill="rgb(105,201,156)"></path>
<path d="M0 0l22.8374 0l0 36.71l-22.8374 0Z" transform="translate(689.0137 531.5979)" fill="rgb(105,201,156)"></path>
<path d="M0 0l32.1198 0l0 21.2864l-32.1198 0Z" transform="translate(635.1301 569.3079)" fill="rgb(105,201,156)"></path>
<path d="M0 0l32.1198 0l0 18.0925l-32.1198 0Z" transform="translate(635.1301 591.5943)" fill="rgb(105,201,156)"></path>
<path d="M0 0l32.1198 0l0 15.4806l-32.1198 0Z" transform="translate(635.1301 610.6868)" fill="rgb(105,201,156)"></path>
<path d="M0 0l15.6677 0l0 31.5506l-15.6677 0Z" transform="translate(668.2499 569.3079)" fill="rgb(105,201,156)"></path>
<path d="M0 0l13.6601 0l0 31.5506l-13.6601 0Z" transform="translate(684.9176 569.3079)" fill="rgb(105,201,156)"></path>
<path d="M0 0l12.2735 0l0 31.5506l-12.2735 0Z" transform="translate(699.5776 569.3079)" fill="rgb(105,201,156)"></path>
<path d="M0 0l29.4091 0l0 12.4043l-29.4091 0Z" transform="translate(668.2499 601.8585)" fill="rgb(105,201,156)"></path>
<path d="M0 0l29.4091 0l0 10.9046l-29.4091 0Z" transform="translate(668.2499 615.2628)" fill="rgb(105,201,156)"></path>
<path d="M0 0l13.1921 0l0 24.3089l-13.1921 0Z" transform="translate(698.659 601.8585)" fill="rgb(105,201,156)"></path>
<path d="M0 0l54.3335 0l0 63.9891l-54.3335 0Z" transform="translate(716.8511 355.7472)" fill="rgb(167,116,190)"></path>
<path d="M0 0l24.8353 0l0 63.9891l-24.8353 0Z" transform="translate(772.1846 355.7472)" fill="rgb(167,116,190)"></path>
<path d="M0 0l40.6126 0l0 29.5333l-40.6126 0Z" transform="translate(716.8511 420.7363)" fill="rgb(167,116,190)"></path>
<path d="M0 0l40.6126 0l0 24.1652l-40.6126 0Z" transform="translate(716.8511 451.2695)" fill="rgb(167,116,190)"></path>
<path d="M0 0l21.6101 0l0 43.1157l-21.6101 0Z" transform="translate(758.4638 420.7363)" fill="rgb(167,116,190)"></path>
<path d="M0 0l15.946 0l0 43.1157l-15.946 0Z" transform="translate(781.0739 420.7363)" fill="rgb(167,116,190)"></path>
<path d="M0 0l38.5562 0l0 10.5828l-38.5562 0Z" transform="translate(758.4638 464.8519)" fill="rgb(167,116,190)"></path>
<path d="M0 0l55.6801 0l0 93.7798l-55.6801 0Z" transform="translate(802.0199 355.7472)" fill="rgb(227,79,187)"></path>
<path d="M0 0l32.9681 0l0 24.9077l-32.9681 0Z" transform="translate(802.0199 450.527)" fill="rgb(227,79,187)"></path>
<path d="M0 0l21.712 0l0 24.9077l-21.712 0Z" transform="translate(835.988 450.527)" fill="rgb(227,79,187)"></path>
<path d="M0 0l45.9509 0l0 58.8186l-45.9509 0Z" transform="translate(716.8511 480.4347)" fill="rgb(102,127,204)"></path>
<path d="M0 0l23.6195 0l0 58.8186l-23.6195 0Z" transform="translate(763.802 480.4347)" fill="rgb(102,127,204)"></path>
<path d="M0 0l70.5704 0l0 18.5016l-70.5704 0Z" transform="translate(716.8511 540.2533)" fill="rgb(102,127,204)"></path>
<path d="M0 0l25.7085 0l0 41.6787l-25.7085 0Z" transform="translate(792.4215 480.4347)" fill="rgb(136,200,106)"></path>
<path d="M0 0l21.213 0l0 41.6787l-21.213 0Z" transform="translate(819.13 480.4347)" fill="rgb(136,200,106)"></path>
<path d="M0 0l16.3569 0l0 41.6787l-16.3569 0Z" transform="translate(841.3431 480.4347)" fill="rgb(136,200,106)"></path>
<path d="M0 0l36.6614 0l0 17.7975l-36.6614 0Z" transform="translate(792.4215 523.1134)" fill="rgb(136,200,106)"></path>
<path d="M0 0l36.6614 0l0 16.844l-36.6614 0Z" transform="translate(792.4215 541.9109)" fill="rgb(136,200,106)"></path>
<path d="M0 0l13.7846 0l0 35.6414l-13.7846 0Z" transform="translate(830.0829 523.1134)" fill="rgb(136,200,106)"></path>
<path d="M0 0l12.8325 0l0 35.6414l-12.8325 0Z" transform="translate(844.8675 523.1134)" fill="rgb(136,200,106)"></path>
<path d="M0 0l17.4737 0l0 45.6347l-17.4737 0Z" transform="translate(789.833 563.7549)" fill="rgb(235,71,71)"></path>
<path d="M0 0l14.3004 0l0 45.6347l-14.3004 0Z" transform="translate(808.3067 563.7549)" fill="rgb(235,71,71)"></path>
<path d="M0 0l15.9143 0l0 17.2939l-15.9143 0Z" transform="translate(789.833 610.3896)" fill="rgb(235,71,71)"></path>
<path d="M0 0l15.8598 0l0 17.2939l-15.8598 0Z" transform="translate(806.7473 610.3896)" fill="rgb(235,71,71)"></path>
<path d="M0 0l30.0929 0l0 63.9286l-30.0929 0Z" transform="translate(827.6071 563.7549)" fill="rgb(90,181,216)"></path>
<path d="M0 0l45.6026 0l0 42.3323l-45.6026 0Z" transform="translate(716.8511 632.6835)" fill="rgb(105,201,156)"></path>
<path d="M0 0l45.6026 0l0 34.5842l-45.6026 0Z" transform="translate(716.8511 680.0158)" fill="rgb(252,112,54)"></path>
<path d="M0 0l40.0031 0l0 38.7272l-40.0031 0Z" transform="translate(767.4537 632.6835)" fill="rgb(167,116,190)"></path>
<path d="M0 0l40.0031 0l0 38.1894l-40.0031 0Z" transform="translate(767.4537 676.4106)" fill="rgb(227,79,187)"></path>
<path d="M0 0l22.8942 0l0 26.8598l-22.8942 0Z" transform="translate(812.4569 632.6835)" fill="rgb(102,127,204)"></path>
<path d="M0 0l22.8942 0l0 14.4345l-22.8942 0Z" transform="translate(812.4569 660.5433)" fill="rgb(102,127,204)"></path>
<path d="M0 0l17.3489 0l0 21.2201l-17.3489 0Z" transform="translate(840.3511 632.6835)" fill="rgb(136,200,106)"></path>
<path d="M0 0l17.3489 0l0 20.0742l-17.3489 0Z" transform="translate(840.3511 654.9036)" fill="rgb(136,200,106)"></path>
<path d="M0 0l24.8353 0l0 63.9891l-24.8353 0Z" transform="translate(772.1846 355.7472)" fill="#9a60b4"></path>
<path d="M0 0l40.6126 0l0 29.5333l-40.6126 0Z" transform="translate(716.8511 420.7363)" fill="#9a60b4"></path>
<path d="M0 0l40.6126 0l0 24.1652l-40.6126 0Z" transform="translate(716.8511 451.2695)" fill="#9a60b4"></path>
<path d="M0 0l15.946 0l0 43.1157l-15.946 0Z" transform="translate(781.0739 420.7363)" fill="#9a60b4"></path>
<path d="M0 0l38.5562 0l0 10.5828l-38.5562 0Z" transform="translate(758.4638 464.8519)" fill="#9a60b4"></path>
<path d="M0 0l32.9681 0l0 24.9077l-32.9681 0Z" transform="translate(802.0199 450.527)" fill="#ea7ccc"></path>
<path d="M0 0l218.1905 0l0 307.5572l-218.1905 0Z" transform="translate(95.3 79.4)" fill="#fff"></path>
<path d="M0 0l147.053 0l0 307.5572l-147.053 0Z" transform="translate(314.4905 79.4)" fill="#fff"></path>
<path d="M0 0l339.9816 0l0 131.903l-339.9816 0Z" transform="translate(95.3 387.9572)" fill="#fff"></path>
<path d="M0 0l25.2619 0l0 119.8485l-25.2619 0Z" transform="translate(436.2816 387.9572)" fill="#fff"></path>
<path d="M0 0l25.2619 0l0 11.0545l-25.2619 0Z" transform="translate(436.2816 508.8057)" fill="#fff"></path>
<path d="M0 0l257.7116 0l0 1.7865l-257.7116 0Z" transform="translate(95.3 520.8602)" fill="#fff"></path>
<path d="M0 0l107.5319 0l0 1.7865l-107.5319 0Z" transform="translate(354.0116 520.8602)" fill="#fff"></path>
<path d="M0 0l125.5469 0l0 116.1533l-125.5469 0Z" transform="translate(95.3 527.6467)" fill="#fff"></path>
<path d="M0 0l125.5469 0l0 69.8l-125.5469 0Z" transform="translate(95.3 644.8)" fill="#fff"></path>
<path d="M0 0l91.2992 0l0 94.6089l-91.2992 0Z" transform="translate(221.8469 527.6467)" fill="#fff"></path>
<path d="M0 0l91.2992 0l0 53.7943l-91.2992 0Z" transform="translate(221.8469 623.2556)" fill="#fff"></path>
<path d="M0 0l91.2992 0l0 36.55l-91.2992 0Z" transform="translate(221.8469 678.05)" fill="#fff"></path>
<path d="M0 0l50.109 0l0 56.9719l-50.109 0Z" transform="translate(314.1461 527.6467)" fill="#fff"></path>
<path d="M0 0l49.5332 0l0 56.9719l-49.5332 0Z" transform="translate(365.2551 527.6467)" fill="#fff"></path>
<path d="M0 0l45.7552 0l0 56.9719l-45.7552 0Z" transform="translate(415.7883 527.6467)" fill="#fff"></path>
<path d="M0 0l49.4895 0l0 39.0006l-49.4895 0Z" transform="translate(314.1461 585.6185)" fill="#fff"></path>
<path d="M0 0l49.4895 0l0 31.9459l-49.4895 0Z" transform="translate(314.1461 625.6191)" fill="#fff"></path>
<path d="M0 0l49.4895 0l0 28.8125l-49.4895 0Z" transform="translate(314.1461 658.565)" fill="#fff"></path>
<path d="M0 0l49.4895 0l0 26.2225l-49.4895 0Z" transform="translate(314.1461 688.3775)" fill="#fff"></path>
<path d="M0 0l26.7284 0l0 46.3917l-26.7284 0Z" transform="translate(364.6356 585.6185)" fill="#fff"></path>
<path d="M0 0l23.4673 0l0 46.3917l-23.4673 0Z" transform="translate(392.3639 585.6185)" fill="#fff"></path>
<path d="M0 0l22.6376 0l0 46.3917l-22.6376 0Z" transform="translate(416.8313 585.6185)" fill="#fff"></path>
<path d="M0 0l21.0746 0l0 46.3917l-21.0746 0Z" transform="translate(440.4689 585.6185)" fill="#fff"></path>
<path d="M0 0l35.1515 0l0 26.3824l-35.1515 0Z" transform="translate(364.6356 633.0102)" fill="#fff"></path>
<path d="M0 0l35.1515 0l0 20.0079l-35.1515 0Z" transform="translate(364.6356 660.3926)" fill="#fff"></path>
<path d="M0 0l35.1515 0l0 18.6799l-35.1515 0Z" transform="translate(364.6356 681.4005)" fill="#fff"></path>
<path d="M0 0l35.1515 0l0 13.5196l-35.1515 0Z" transform="translate(364.6356 701.0804)" fill="#fff"></path>
<path d="M0 0l15.4177 0l0 28.4377l-15.4177 0Z" transform="translate(400.7871 633.0102)" fill="#fff"></path>
<path d="M0 0l14.5634 0l0 28.4377l-14.5634 0Z" transform="translate(417.2047 633.0102)" fill="#fff"></path>
<path d="M0 0l14.377 0l0 28.4377l-14.377 0Z" transform="translate(432.7681 633.0102)" fill="#fff"></path>
<path d="M0 0l13.3985 0l0 28.4377l-13.3985 0Z" transform="translate(448.1451 633.0102)" fill="#fff"></path>
<path d="M0 0l22.0888 0l0 17.0606l-22.0888 0Z" transform="translate(400.7871 662.4479)" fill="#fff"></path>
<path d="M0 0l22.0888 0l0 16.9616l-22.0888 0Z" transform="translate(400.7871 680.5085)" fill="#fff"></path>
<path d="M0 0l22.0888 0l0 16.1299l-22.0888 0Z" transform="translate(400.7871 698.4701)" fill="#fff"></path>
<path d="M0 0l12.2766 0l0 27.7223l-12.2766 0Z" transform="translate(423.8758 662.4479)" fill="#fff"></path>
<path d="M0 0l11.7672 0l0 27.7223l-11.7672 0Z" transform="translate(437.1524 662.4479)" fill="#fff"></path>
<path d="M0 0l11.6239 0l0 27.7223l-11.6239 0Z" transform="translate(449.9196 662.4479)" fill="#fff"></path>
<path d="M0 0l25.3524 0l0 11.4752l-25.3524 0Z" transform="translate(423.8758 691.1701)" fill="#fff"></path>
<path d="M0 0l25.3524 0l0 10.9547l-25.3524 0Z" transform="translate(423.8758 703.6453)" fill="#fff"></path>
<path d="M0 0l11.3153 0l0 23.4299l-11.3153 0Z" transform="translate(450.2283 691.1701)" fill="#fff"></path>
<path d="M0 0l122.4273 0l0 108.8164l-122.4273 0Z" transform="translate(466.5435 79.4)" fill="#fff"></path>
<path d="M0 0l72.6555 0l0 108.8164l-72.6555 0Z" transform="translate(589.9708 79.4)" fill="#fff"></path>
<path d="M0 0l31.2325 0l0 108.8164l-31.2325 0Z" transform="translate(663.6262 79.4)" fill="#fff"></path>
<path d="M0 0l65.9707 0l0 46.0088l-65.9707 0Z" transform="translate(466.5435 189.2164)" fill="#fff"></path>
<path d="M0 0l65.9707 0l0 44.6522l-65.9707 0Z" transform="translate(466.5435 236.2252)" fill="#fff"></path>
<path d="M0 0l65.9707 0l0 36.3652l-65.9707 0Z" transform="translate(466.5435 281.8774)" fill="#fff"></path>
<path d="M0 0l65.9707 0l0 31.5046l-65.9707 0Z" transform="translate(466.5435 319.2426)" fill="#fff"></path>
<path d="M0 0l37.0711 0l0 55.2513l-37.0711 0Z" transform="translate(533.5142 189.2164)" fill="#fff"></path>
<path d="M0 0l36.2036 0l0 55.2513l-36.2036 0Z" transform="translate(571.5853 189.2164)" fill="#fff"></path>
<path d="M0 0l33.4255 0l0 55.2513l-33.4255 0Z" transform="translate(608.7889 189.2164)" fill="#fff"></path>
<path d="M0 0l26.7989 0l0 55.2513l-26.7989 0Z" transform="translate(643.2145 189.2164)" fill="#fff"></path>
<path d="M0 0l23.8455 0l0 55.2513l-23.8455 0Z" transform="translate(671.0133 189.2164)" fill="#fff"></path>
<path d="M0 0l42.6123 0l0 28.1173l-42.6123 0Z" transform="translate(533.5142 245.4677)" fill="#fff"></path>
<path d="M0 0l42.6123 0l0 27.5102l-42.6123 0Z" transform="translate(533.5142 274.585)" fill="#fff"></path>
<path d="M0 0l42.6123 0l0 24.2723l-42.6123 0Z" transform="translate(533.5142 303.0953)" fill="#fff"></path>
<path d="M0 0l42.6123 0l0 22.3796l-42.6123 0Z" transform="translate(533.5142 328.3676)" fill="#fff"></path>
<path d="M0 0l37.6395 0l0 24.6226l-37.6395 0Z" transform="translate(577.1265 245.4677)" fill="#fff"></path>
<path d="M0 0l37.6395 0l0 21.4248l-37.6395 0Z" transform="translate(577.1265 271.0903)" fill="#fff"></path>
<path d="M0 0l37.6395 0l0 19.7185l-37.6395 0Z" transform="translate(577.1265 293.5152)" fill="#fff"></path>
<path d="M0 0l37.6395 0l0 17.9986l-37.6395 0Z" transform="translate(577.1265 314.2336)" fill="#fff"></path>
<path d="M0 0l37.6395 0l0 17.5149l-37.6395 0Z" transform="translate(577.1265 333.2322)" fill="#fff"></path>
<path d="M0 0l20.0367 0l0 31.5269l-20.0367 0Z" transform="translate(615.766 245.4677)" fill="#fff"></path>
<path d="M0 0l18.8556 0l0 31.5269l-18.8556 0Z" transform="translate(636.8028 245.4677)" fill="#fff"></path>
<path d="M0 0l18.7598 0l0 31.5269l-18.7598 0Z" transform="translate(656.6584 245.4677)" fill="#fff"></path>
<path d="M0 0l18.4406 0l0 31.5269l-18.4406 0Z" transform="translate(676.4182 245.4677)" fill="#fff"></path>
<path d="M0 0l29.9446 0l0 18.5958l-29.9446 0Z" transform="translate(615.766 277.9946)" fill="#fff"></path>
<path d="M0 0l29.9446 0l0 18.1764l-29.9446 0Z" transform="translate(615.766 297.5903)" fill="#fff"></path>
<path d="M0 0l29.9446 0l0 16.8174l-29.9446 0Z" transform="translate(615.766 316.7667)" fill="#fff"></path>
<path d="M0 0l29.9446 0l0 16.1631l-29.9446 0Z" transform="translate(615.766 334.5841)" fill="#fff"></path>
<path d="M0 0l16.715 0l0 28.7461l-16.715 0Z" transform="translate(646.7106 277.9946)" fill="#fff"></path>
<path d="M0 0l15.2664 0l0 28.7461l-15.2664 0Z" transform="translate(664.4256 277.9946)" fill="#fff"></path>
<path d="M0 0l14.1668 0l0 28.7461l-14.1668 0Z" transform="translate(680.692 277.9946)" fill="#fff"></path>
<path d="M0 0l25.4263 0l0 15.2667l-25.4263 0Z" transform="translate(646.7106 307.7407)" fill="#fff"></path>
<path d="M0 0l25.4263 0l0 12.9288l-25.4263 0Z" transform="translate(646.7106 324.0074)" fill="#fff"></path>
<path d="M0 0l25.4263 0l0 12.811l-25.4263 0Z" transform="translate(646.7106 337.9362)" fill="#fff"></path>
<path d="M0 0l10.4639 0l0 29.2516l-10.4639 0Z" transform="translate(673.1369 307.7407)" fill="#fff"></path>
<path d="M0 0l10.258 0l0 29.2516l-10.258 0Z" transform="translate(684.6008 307.7407)" fill="#fff"></path>
<path d="M0 0l21.7219 0l0 12.7549l-21.7219 0Z" transform="translate(673.1369 337.9923)" fill="#fff"></path>
<path d="M0 0l157.8412 0l0 128.077l-157.8412 0Z" transform="translate(699.8588 79.4)" fill="#fff"></path>
<path d="M0 0l74.6145 0l0 54.6669l-74.6145 0Z" transform="translate(699.8588 208.477)" fill="#fff"></path>
<path d="M0 0l74.6145 0l0 43.6374l-74.6145 0Z" transform="translate(699.8588 264.1439)" fill="#fff"></path>
<path d="M0 0l74.6145 0l0 41.9659l-74.6145 0Z" transform="translate(699.8588 308.7813)" fill="#fff"></path>
<path d="M0 0l20.2395 0l0 45.9801l-20.2395 0Z" transform="translate(775.4733 208.477)" fill="#fff"></path>
<path d="M0 0l15.4861 0l0 45.9801l-15.4861 0Z" transform="translate(796.7128 208.477)" fill="#fff"></path>
<path d="M0 0l22.9072 0l0 45.9801l-22.9072 0Z" transform="translate(813.1989 208.477)" fill="#fff"></path>
<path d="M0 0l20.5939 0l0 45.9801l-20.5939 0Z" transform="translate(837.1061 208.477)" fill="#fff"></path>
<path d="M0 0l23.1822 0l0 39.8826l-23.1822 0Z" transform="translate(775.4733 255.4571)" fill="#fff"></path>
<path d="M0 0l20.7933 0l0 39.8826l-20.7933 0Z" transform="translate(799.6555 255.4571)" fill="#fff"></path>
<path d="M0 0l18.3809 0l0 39.8826l-18.3809 0Z" transform="translate(821.4488 255.4571)" fill="#fff"></path>
<path d="M0 0l16.8703 0l0 39.8826l-16.8703 0Z" transform="translate(840.8297 255.4571)" fill="#fff"></path>
<path d="M0 0l27.4018 0l0 19.0087l-27.4018 0Z" transform="translate(775.4733 296.3397)" fill="#fff"></path>
<path d="M0 0l27.4018 0l0 17.0028l-27.4018 0Z" transform="translate(775.4733 316.3484)" fill="#fff"></path>
<path d="M0 0l27.4018 0l0 16.396l-27.4018 0Z" transform="translate(775.4733 334.3512)" fill="#fff"></path>
<path d="M0 0l17.921 0l0 21.9751l-17.921 0Z" transform="translate(803.8751 296.3397)" fill="#fff"></path>
<path d="M0 0l17.2541 0l0 21.9751l-17.2541 0Z" transform="translate(822.796 296.3397)" fill="#fff"></path>
<path d="M0 0l16.6498 0l0 21.9751l-16.6498 0Z" transform="translate(841.0502 296.3397)" fill="#fff"></path>
<path d="M0 0l23.2535 0l0 15.305l-23.2535 0Z" transform="translate(803.8751 319.3148)" fill="#fff"></path>
<path d="M0 0l23.2535 0l0 15.1274l-23.2535 0Z" transform="translate(803.8751 335.6198)" fill="#fff"></path>
<path d="M0 0l15.7781 0l0 21.4568l-15.7781 0Z" transform="translate(828.1285 319.3148)" fill="#fff"></path>
<path d="M0 0l12.7934 0l0 21.4568l-12.7934 0Z" transform="translate(844.9066 319.3148)" fill="#fff"></path>
<path d="M0 0l29.5715 0l0 8.9756l-29.5715 0Z" transform="translate(828.1285 341.7716)" fill="#fff"></path>
<path d="M0 0l100.314 0l0 85.0534l-100.314 0Z" transform="translate(466.5435 355.7472)" fill="#fff"></path>
<path d="M0 0l100.314 0l0 84.7974l-100.314 0Z" transform="translate(466.5435 441.8006)" fill="#fff"></path>
<path d="M0 0l44.148 0l0 65.07l-44.148 0Z" transform="translate(567.8576 355.7472)" fill="#fff"></path>
<path d="M0 0l39.6246 0l0 65.07l-39.6246 0Z" transform="translate(613.0056 355.7472)" fill="#fff"></path>
<path d="M0 0l32.6588 0l0 65.07l-32.6588 0Z" transform="translate(653.6302 355.7472)" fill="#fff"></path>
<path d="M0 0l24.5622 0l0 65.07l-24.5622 0Z" transform="translate(687.289 355.7472)" fill="#fff"></path>
<path d="M0 0l48.703 0l0 28.2925l-48.703 0Z" transform="translate(567.8576 421.8172)" fill="#fff"></path>
<path d="M0 0l48.703 0l0 26.3717l-48.703 0Z" transform="translate(567.8576 451.1097)" fill="#fff"></path>
<path d="M0 0l48.703 0l0 24.2003l-48.703 0Z" transform="translate(567.8576 478.4814)" fill="#fff"></path>
<path d="M0 0l48.703 0l0 22.9163l-48.703 0Z" transform="translate(567.8576 503.6817)" fill="#fff"></path>
<path d="M0 0l32.5721 0l0 34.1913l-32.5721 0Z" transform="translate(617.5605 421.8172)" fill="#fff"></path>
<path d="M0 0l21.5583 0l0 34.1913l-21.5583 0Z" transform="translate(651.1327 421.8172)" fill="#fff"></path>
<path d="M0 0l20.4083 0l0 34.1913l-20.4083 0Z" transform="translate(673.691 421.8172)" fill="#fff"></path>
<path d="M0 0l16.7518 0l0 34.1913l-16.7518 0Z" transform="translate(695.0993 421.8172)" fill="#fff"></path>
<path d="M0 0l33.4072 0l0 17.1262l-33.4072 0Z" transform="translate(617.5605 457.0085)" fill="#fff"></path>
<path d="M0 0l33.4072 0l0 16.9301l-33.4072 0Z" transform="translate(617.5605 475.1346)" fill="#fff"></path>
<path d="M0 0l33.4072 0l0 16.4476l-33.4072 0Z" transform="translate(617.5605 493.0648)" fill="#fff"></path>
<path d="M0 0l33.4072 0l0 16.0856l-33.4072 0Z" transform="translate(617.5605 510.5123)" fill="#fff"></path>
<path d="M0 0l17.402 0l0 30.4384l-17.402 0Z" transform="translate(651.9678 457.0085)" fill="#fff"></path>
<path d="M0 0l13.8866 0l0 30.4384l-13.8866 0Z" transform="translate(670.3697 457.0085)" fill="#fff"></path>
<path d="M0 0l13.7546 0l0 30.4384l-13.7546 0Z" transform="translate(685.2564 457.0085)" fill="#fff"></path>
<path d="M0 0l11.8401 0l0 30.4384l-11.8401 0Z" transform="translate(700.011 457.0085)" fill="#fff"></path>
<path d="M0 0l27.5598 0l0 13.098l-27.5598 0Z" transform="translate(651.9678 488.4469)" fill="#fff"></path>
<path d="M0 0l27.5598 0l0 12.5166l-27.5598 0Z" transform="translate(651.9678 502.5449)" fill="#fff"></path>
<path d="M0 0l27.5598 0l0 10.5364l-27.5598 0Z" transform="translate(651.9678 516.0616)" fill="#fff"></path>
<path d="M0 0l15.1746 0l0 19.2417l-15.1746 0Z" transform="translate(680.5275 488.4469)" fill="#fff"></path>
<path d="M0 0l15.149 0l0 19.2417l-15.149 0Z" transform="translate(696.7021 488.4469)" fill="#fff"></path>
<path d="M0 0l15.4362 0l0 17.9094l-15.4362 0Z" transform="translate(680.5275 508.6886)" fill="#fff"></path>
<path d="M0 0l14.8874 0l0 17.9094l-14.8874 0Z" transform="translate(696.9637 508.6886)" fill="#fff"></path>
<path d="M0 0l113.7589 0l0 94.5695l-113.7589 0Z" transform="translate(466.5435 531.5979)" fill="#fff"></path>
<path d="M0 0l52.8277 0l0 49.6146l-52.8277 0Z" transform="translate(581.3024 531.5979)" fill="#fff"></path>
<path d="M0 0l52.8277 0l0 43.9549l-52.8277 0Z" transform="translate(581.3024 582.2126)" fill="#fff"></path>
<path d="M0 0l28.9464 0l0 36.71l-28.9464 0Z" transform="translate(635.1301 531.5979)" fill="#fff"></path>
<path d="M0 0l22.9372 0l0 36.71l-22.9372 0Z" transform="translate(665.0765 531.5979)" fill="#fff"></path>
<path d="M0 0l22.8374 0l0 36.71l-22.8374 0Z" transform="translate(689.0137 531.5979)" fill="#fff"></path>
<path d="M0 0l32.1198 0l0 21.2864l-32.1198 0Z" transform="translate(635.1301 569.3079)" fill="#fff"></path>
<path d="M0 0l32.1198 0l0 18.0925l-32.1198 0Z" transform="translate(635.1301 591.5943)" fill="#fff"></path>
<path d="M0 0l32.1198 0l0 15.4806l-32.1198 0Z" transform="translate(635.1301 610.6868)" fill="#fff"></path>
<path d="M0 0l15.6677 0l0 31.5506l-15.6677 0Z" transform="translate(668.2499 569.3079)" fill="#fff"></path>
<path d="M0 0l13.6601 0l0 31.5506l-13.6601 0Z" transform="translate(684.9176 569.3079)" fill="#fff"></path>
<path d="M0 0l12.2735 0l0 31.5506l-12.2735 0Z" transform="translate(699.5776 569.3079)" fill="#fff"></path>
<path d="M0 0l29.4091 0l0 12.4043l-29.4091 0Z" transform="translate(668.2499 601.8585)" fill="#fff"></path>
<path d="M0 0l29.4091 0l0 10.9046l-29.4091 0Z" transform="translate(668.2499 615.2628)" fill="#fff"></path>
<path d="M0 0l13.1921 0l0 24.3089l-13.1921 0Z" transform="translate(698.659 601.8585)" fill="#fff"></path>
<path d="M0 0l28.0016 0l0 63.9891l-28.0016 0Z" transform="translate(716.8511 355.7472)" fill="#fff"></path>
<path d="M0 0l25.332 0l0 63.9891l-25.332 0Z" transform="translate(745.8527 355.7472)" fill="#fff"></path>
<path d="M0 0l21.6101 0l0 23.8151l-21.6101 0Z" transform="translate(758.4638 420.7363)" fill="#fff"></path>
<path d="M0 0l21.6101 0l0 18.3006l-21.6101 0Z" transform="translate(758.4638 445.5513)" fill="#fff"></path>
<path d="M0 0l55.6801 0l0 93.7798l-55.6801 0Z" transform="translate(802.0199 355.7472)" fill="#fff"></path>
<path d="M0 0l21.712 0l0 24.9077l-21.712 0Z" transform="translate(835.988 450.527)" fill="#fff"></path>
<path d="M0 0l22.5252 0l0 58.8186l-22.5252 0Z" transform="translate(716.8511 480.4347)" fill="#fff"></path>
<path d="M0 0l22.4257 0l0 58.8186l-22.4257 0Z" transform="translate(740.3763 480.4347)" fill="#fff"></path>
<path d="M0 0l23.6195 0l0 43.405l-23.6195 0Z" transform="translate(763.802 480.4347)" fill="#fff"></path>
<path d="M0 0l23.6195 0l0 14.4135l-23.6195 0Z" transform="translate(763.802 524.8398)" fill="#fff"></path>
<path d="M0 0l52.6266 0l0 18.5016l-52.6266 0Z" transform="translate(716.8511 540.2533)" fill="#fff"></path>
<path d="M0 0l16.9438 0l0 18.5016l-16.9438 0Z" transform="translate(770.4777 540.2533)" fill="#fff"></path>
<path d="M0 0l25.7085 0l0 41.6787l-25.7085 0Z" transform="translate(792.4215 480.4347)" fill="#fff"></path>
<path d="M0 0l21.213 0l0 41.6787l-21.213 0Z" transform="translate(819.13 480.4347)" fill="#fff"></path>
<path d="M0 0l16.3569 0l0 41.6787l-16.3569 0Z" transform="translate(841.3431 480.4347)" fill="#fff"></path>
<path d="M0 0l36.6614 0l0 17.7975l-36.6614 0Z" transform="translate(792.4215 523.1134)" fill="#fff"></path>
<path d="M0 0l36.6614 0l0 16.844l-36.6614 0Z" transform="translate(792.4215 541.9109)" fill="#fff"></path>
<path d="M0 0l13.7846 0l0 35.6414l-13.7846 0Z" transform="translate(830.0829 523.1134)" fill="#fff"></path>
<path d="M0 0l12.8325 0l0 35.6414l-12.8325 0Z" transform="translate(844.8675 523.1134)" fill="#fff"></path>
<path d="M0 0l17.4737 0l0 45.6347l-17.4737 0Z" transform="translate(789.833 563.7549)" fill="#fff"></path>
<path d="M0 0l14.3004 0l0 45.6347l-14.3004 0Z" transform="translate(808.3067 563.7549)" fill="#fff"></path>
<path d="M0 0l15.9143 0l0 17.2939l-15.9143 0Z" transform="translate(789.833 610.3896)" fill="#fff"></path>
<path d="M0 0l15.8598 0l0 17.2939l-15.8598 0Z" transform="translate(806.7473 610.3896)" fill="#fff"></path>
<path d="M0 0l30.0929 0l0 63.9286l-30.0929 0Z" transform="translate(827.6071 563.7549)" fill="#fff"></path>
<path d="M0 0l45.6026 0l0 42.3323l-45.6026 0Z" transform="translate(716.8511 632.6835)" fill="#fff"></path>
<path d="M0 0l45.6026 0l0 34.5842l-45.6026 0Z" transform="translate(716.8511 680.0158)" fill="#fff"></path>
<path d="M0 0l40.0031 0l0 38.7272l-40.0031 0Z" transform="translate(767.4537 632.6835)" fill="#fff"></path>
<path d="M0 0l40.0031 0l0 38.1894l-40.0031 0Z" transform="translate(767.4537 676.4106)" fill="#fff"></path>
<path d="M0 0l22.8942 0l0 26.8598l-22.8942 0Z" transform="translate(812.4569 632.6835)" fill="#fff"></path>
<path d="M0 0l22.8942 0l0 14.4345l-22.8942 0Z" transform="translate(812.4569 660.5433)" fill="#fff"></path>
<path d="M0 0l17.3489 0l0 21.2201l-17.3489 0Z" transform="translate(840.3511 632.6835)" fill="#fff"></path>
<path d="M0 0l17.3489 0l0 20.0742l-17.3489 0Z" transform="translate(840.3511 654.9036)" fill="#fff"></path>
<path d="M0 0l218.1905 0l0 307.5572l-218.1905 0Z" transform="translate(95.3 79.4)" fill="rgb(64,95,191)"></path>
<path d="M0 0l147.053 0l0 307.5572l-147.053 0Z" transform="translate(314.4905 79.4)" fill="rgb(58,86,173)"></path>
<path d="M0 0l339.9816 0l0 131.903l-339.9816 0Z" transform="translate(95.3 387.9572)" fill="rgb(57,86,172)"></path>
<path d="M0 0l25.2619 0l0 119.8485l-25.2619 0Z" transform="translate(436.2816 387.9572)" fill="rgb(46,68,137)"></path>
<path d="M0 0l25.2619 0l0 11.0545l-25.2619 0Z" transform="translate(436.2816 508.8057)" fill="rgb(45,67,134)"></path>
<path d="M0 0l257.7116 0l0 1.7865l-257.7116 0Z" transform="translate(95.3 520.8602)" fill="rgb(64,95,191)"></path>
<path d="M0 0l107.5319 0l0 1.7865l-107.5319 0Z" transform="translate(354.0116 520.8602)" fill="rgb(54,81,163)"></path>
<path d="M0 0l125.5469 0l0 116.1533l-125.5469 0Z" transform="translate(95.3 527.6467)" fill="rgb(91,158,58)"></path>
<path d="M0 0l125.5469 0l0 69.8l-125.5469 0Z" transform="translate(95.3 644.8)" fill="rgb(91,158,58)"></path>
<path d="M0 0l91.2992 0l0 94.6089l-91.2992 0Z" transform="translate(221.8469 527.6467)" fill="rgb(91,158,58)"></path>
<path d="M0 0l91.2992 0l0 53.7943l-91.2992 0Z" transform="translate(221.8469 623.2556)" fill="rgb(91,158,58)"></path>
<path d="M0 0l91.2992 0l0 36.55l-91.2992 0Z" transform="translate(221.8469 678.05)" fill="rgb(91,158,58)"></path>
<path d="M0 0l50.109 0l0 56.9719l-50.109 0Z" transform="translate(314.1461 527.6467)" fill="rgb(91,158,58)"></path>
<path d="M0 0l49.5332 0l0 56.9719l-49.5332 0Z" transform="translate(365.2551 527.6467)" fill="rgb(91,158,58)"></path>
<path d="M0 0l45.7552 0l0 56.9719l-45.7552 0Z" transform="translate(415.7883 527.6467)" fill="rgb(91,158,58)"></path>
<path d="M0 0l49.4895 0l0 39.0006l-49.4895 0Z" transform="translate(314.1461 585.6185)" fill="rgb(107,186,69)"></path>
<path d="M0 0l49.4895 0l0 31.9459l-49.4895 0Z" transform="translate(314.1461 625.6191)" fill="rgb(91,158,58)"></path>
<path d="M0 0l49.4895 0l0 28.8125l-49.4895 0Z" transform="translate(314.1461 658.565)" fill="rgb(91,158,58)"></path>
<path d="M0 0l49.4895 0l0 26.2225l-49.4895 0Z" transform="translate(314.1461 688.3775)" fill="rgb(91,158,58)"></path>
<path d="M0 0l26.7284 0l0 46.3917l-26.7284 0Z" transform="translate(364.6356 585.6185)" fill="rgb(107,186,69)"></path>
<path d="M0 0l23.4673 0l0 46.3917l-23.4673 0Z" transform="translate(392.3639 585.6185)" fill="rgb(91,158,58)"></path>
<path d="M0 0l22.6376 0l0 46.3917l-22.6376 0Z" transform="translate(416.8313 585.6185)" fill="rgb(91,158,58)"></path>
<path d="M0 0l21.0746 0l0 46.3917l-21.0746 0Z" transform="translate(440.4689 585.6185)" fill="rgb(91,158,58)"></path>
<path d="M0 0l35.1515 0l0 26.3824l-35.1515 0Z" transform="translate(364.6356 633.0102)" fill="rgb(91,158,58)"></path>
<path d="M0 0l35.1515 0l0 20.0079l-35.1515 0Z" transform="translate(364.6356 660.3926)" fill="rgb(91,158,58)"></path>
<path d="M0 0l35.1515 0l0 18.6799l-35.1515 0Z" transform="translate(364.6356 681.4005)" fill="rgb(107,186,69)"></path>
<path d="M0 0l35.1515 0l0 13.5196l-35.1515 0Z" transform="translate(364.6356 701.0804)" fill="rgb(91,158,58)"></path>
<path d="M0 0l15.4177 0l0 28.4377l-15.4177 0Z" transform="translate(400.7871 633.0102)" fill="rgb(91,158,58)"></path>
<path d="M0 0l14.5634 0l0 28.4377l-14.5634 0Z" transform="translate(417.2047 633.0102)" fill="rgb(91,158,58)"></path>
<path d="M0 0l14.377 0l0 28.4377l-14.377 0Z" transform="translate(432.7681 633.0102)" fill="rgb(91,158,58)"></path>
<path d="M0 0l13.3985 0l0 28.4377l-13.3985 0Z" transform="translate(448.1451 633.0102)" fill="rgb(91,158,58)"></path>
<path d="M0 0l22.0888 0l0 17.0606l-22.0888 0Z" transform="translate(400.7871 662.4479)" fill="rgb(91,158,58)"></path>
<path d="M0 0l22.0888 0l0 16.9616l-22.0888 0Z" transform="translate(400.7871 680.5085)" fill="rgb(91,158,58)"></path>
<path d="M0 0l22.0888 0l0 16.1299l-22.0888 0Z" transform="translate(400.7871 698.4701)" fill="rgb(91,158,58)"></path>
<path d="M0 0l12.2766 0l0 27.7223l-12.2766 0Z" transform="translate(423.8758 662.4479)" fill="rgb(91,158,58)"></path>
<path d="M0 0l11.7672 0l0 27.7223l-11.7672 0Z" transform="translate(437.1524 662.4479)" fill="rgb(91,158,58)"></path>
<path d="M0 0l11.6239 0l0 27.7223l-11.6239 0Z" transform="translate(449.9196 662.4479)" fill="rgb(91,158,58)"></path>
<path d="M0 0l25.3524 0l0 11.4752l-25.3524 0Z" transform="translate(423.8758 691.1701)" fill="rgb(91,158,58)"></path>
<path d="M0 0l25.3524 0l0 10.9547l-25.3524 0Z" transform="translate(423.8758 703.6453)" fill="rgb(91,158,58)"></path>
<path d="M0 0l11.3153 0l0 23.4299l-11.3153 0Z" transform="translate(450.2283 691.1701)" fill="rgb(91,158,58)"></path>
<path d="M0 0l122.4273 0l0 108.8164l-122.4273 0Z" transform="translate(466.5435 79.4)" fill="rgb(210,147,6)"></path>
<path d="M0 0l72.6555 0l0 108.8164l-72.6555 0Z" transform="translate(589.9708 79.4)" fill="rgb(210,147,6)"></path>
<path d="M0 0l31.2325 0l0 108.8164l-31.2325 0Z" transform="translate(663.6262 79.4)" fill="rgb(210,147,6)"></path>
<path d="M0 0l65.9707 0l0 46.0088l-65.9707 0Z" transform="translate(466.5435 189.2164)" fill="rgb(210,147,6)"></path>
<path d="M0 0l65.9707 0l0 44.6522l-65.9707 0Z" transform="translate(466.5435 236.2252)" fill="rgb(210,147,6)"></path>
<path d="M0 0l65.9707 0l0 36.3652l-65.9707 0Z" transform="translate(466.5435 281.8774)" fill="rgb(210,147,6)"></path>
<path d="M0 0l65.9707 0l0 31.5046l-65.9707 0Z" transform="translate(466.5435 319.2426)" fill="rgb(210,147,6)"></path>
<path d="M0 0l37.0711 0l0 55.2513l-37.0711 0Z" transform="translate(533.5142 189.2164)" fill="rgb(210,147,6)"></path>
<path d="M0 0l36.2036 0l0 55.2513l-36.2036 0Z" transform="translate(571.5853 189.2164)" fill="rgb(210,147,6)"></path>
<path d="M0 0l33.4255 0l0 55.2513l-33.4255 0Z" transform="translate(608.7889 189.2164)" fill="rgb(210,147,6)"></path>
<path d="M0 0l26.7989 0l0 55.2513l-26.7989 0Z" transform="translate(643.2145 189.2164)" fill="rgb(210,147,6)"></path>
<path d="M0 0l23.8455 0l0 55.2513l-23.8455 0Z" transform="translate(671.0133 189.2164)" fill="rgb(210,147,6)"></path>
<path d="M0 0l42.6123 0l0 28.1173l-42.6123 0Z" transform="translate(533.5142 245.4677)" fill="rgb(210,147,6)"></path>
<path d="M0 0l42.6123 0l0 27.5102l-42.6123 0Z" transform="translate(533.5142 274.585)" fill="rgb(210,147,6)"></path>
<path d="M0 0l42.6123 0l0 24.2723l-42.6123 0Z" transform="translate(533.5142 303.0953)" fill="rgb(210,147,6)"></path>
<path d="M0 0l42.6123 0l0 22.3796l-42.6123 0Z" transform="translate(533.5142 328.3676)" fill="rgb(210,147,6)"></path>
<path d="M0 0l37.6395 0l0 24.6226l-37.6395 0Z" transform="translate(577.1265 245.4677)" fill="rgb(210,147,6)"></path>
<path d="M0 0l37.6395 0l0 21.4248l-37.6395 0Z" transform="translate(577.1265 271.0903)" fill="rgb(210,147,6)"></path>
<path d="M0 0l37.6395 0l0 19.7185l-37.6395 0Z" transform="translate(577.1265 293.5152)" fill="rgb(210,147,6)"></path>
<path d="M0 0l37.6395 0l0 17.9986l-37.6395 0Z" transform="translate(577.1265 314.2336)" fill="rgb(248,173,7)"></path>
<path d="M0 0l37.6395 0l0 17.5149l-37.6395 0Z" transform="translate(577.1265 333.2322)" fill="rgb(210,147,6)"></path>
<path d="M0 0l20.0367 0l0 31.5269l-20.0367 0Z" transform="translate(615.766 245.4677)" fill="rgb(210,147,6)"></path>
<path d="M0 0l18.8556 0l0 31.5269l-18.8556 0Z" transform="translate(636.8028 245.4677)" fill="rgb(210,147,6)"></path>
<path d="M0 0l18.7598 0l0 31.5269l-18.7598 0Z" transform="translate(656.6584 245.4677)" fill="rgb(210,147,6)"></path>
<path d="M0 0l18.4406 0l0 31.5269l-18.4406 0Z" transform="translate(676.4182 245.4677)" fill="rgb(210,147,6)"></path>
<path d="M0 0l29.9446 0l0 18.5958l-29.9446 0Z" transform="translate(615.766 277.9946)" fill="rgb(210,147,6)"></path>
<path d="M0 0l29.9446 0l0 18.1764l-29.9446 0Z" transform="translate(615.766 297.5903)" fill="rgb(248,173,7)"></path>
<path d="M0 0l29.9446 0l0 16.8174l-29.9446 0Z" transform="translate(615.766 316.7667)" fill="rgb(210,147,6)"></path>
<path d="M0 0l29.9446 0l0 16.1631l-29.9446 0Z" transform="translate(615.766 334.5841)" fill="rgb(210,147,6)"></path>
<path d="M0 0l16.715 0l0 28.7461l-16.715 0Z" transform="translate(646.7106 277.9946)" fill="rgb(210,147,6)"></path>
<path d="M0 0l15.2664 0l0 28.7461l-15.2664 0Z" transform="translate(664.4256 277.9946)" fill="rgb(210,147,6)"></path>
<path d="M0 0l14.1668 0l0 28.7461l-14.1668 0Z" transform="translate(680.692 277.9946)" fill="rgb(210,147,6)"></path>
<path d="M0 0l25.4263 0l0 15.2667l-25.4263 0Z" transform="translate(646.7106 307.7407)" fill="rgb(210,147,6)"></path>
<path d="M0 0l25.4263 0l0 12.9288l-25.4263 0Z" transform="translate(646.7106 324.0074)" fill="rgb(210,147,6)"></path>
<path d="M0 0l25.4263 0l0 12.811l-25.4263 0Z" transform="translate(646.7106 337.9362)" fill="rgb(210,147,6)"></path>
<path d="M0 0l10.4639 0l0 29.2516l-10.4639 0Z" transform="translate(673.1369 307.7407)" fill="rgb(248,173,7)"></path>
<path d="M0 0l10.258 0l0 29.2516l-10.258 0Z" transform="translate(684.6008 307.7407)" fill="rgb(210,147,6)"></path>
<path d="M0 0l21.7219 0l0 12.7549l-21.7219 0Z" transform="translate(673.1369 337.9923)" fill="rgb(210,147,6)"></path>
<path d="M0 0l157.8412 0l0 128.077l-157.8412 0Z" transform="translate(699.8588 79.4)" fill="rgb(195,22,22)"></path>
<path d="M0 0l74.6145 0l0 54.6669l-74.6145 0Z" transform="translate(699.8588 208.477)" fill="rgb(195,22,22)"></path>
<path d="M0 0l74.6145 0l0 43.6374l-74.6145 0Z" transform="translate(699.8588 264.1439)" fill="rgb(195,22,22)"></path>
<path d="M0 0l74.6145 0l0 41.9659l-74.6145 0Z" transform="translate(699.8588 308.7813)" fill="rgb(195,22,22)"></path>
<path d="M0 0l20.2395 0l0 45.9801l-20.2395 0Z" transform="translate(775.4733 208.477)" fill="rgb(230,25,25)"></path>
<path d="M0 0l15.4861 0l0 45.9801l-15.4861 0Z" transform="translate(796.7128 208.477)" fill="rgb(209,23,23)"></path>
<path d="M0 0l22.9072 0l0 45.9801l-22.9072 0Z" transform="translate(813.1989 208.477)" fill="rgb(195,22,22)"></path>
<path d="M0 0l20.5939 0l0 45.9801l-20.5939 0Z" transform="translate(837.1061 208.477)" fill="rgb(195,22,22)"></path>
<path d="M0 0l23.1822 0l0 39.8826l-23.1822 0Z" transform="translate(775.4733 255.4571)" fill="rgb(195,22,22)"></path>
<path d="M0 0l20.7933 0l0 39.8826l-20.7933 0Z" transform="translate(799.6555 255.4571)" fill="rgb(195,22,22)"></path>
<path d="M0 0l18.3809 0l0 39.8826l-18.3809 0Z" transform="translate(821.4488 255.4571)" fill="rgb(195,22,22)"></path>
<path d="M0 0l16.8703 0l0 39.8826l-16.8703 0Z" transform="translate(840.8297 255.4571)" fill="rgb(195,22,22)"></path>
<path d="M0 0l27.4018 0l0 19.0087l-27.4018 0Z" transform="translate(775.4733 296.3397)" fill="rgb(195,22,22)"></path>
<path d="M0 0l27.4018 0l0 17.0028l-27.4018 0Z" transform="translate(775.4733 316.3484)" fill="rgb(230,25,25)"></path>
<path d="M0 0l27.4018 0l0 16.396l-27.4018 0Z" transform="translate(775.4733 334.3512)" fill="rgb(230,25,25)"></path>
<path d="M0 0l17.921 0l0 21.9751l-17.921 0Z" transform="translate(803.8751 296.3397)" fill="rgb(195,22,22)"></path>
<path d="M0 0l17.2541 0l0 21.9751l-17.2541 0Z" transform="translate(822.796 296.3397)" fill="rgb(230,25,25)"></path>
<path d="M0 0l16.6498 0l0 21.9751l-16.6498 0Z" transform="translate(841.0502 296.3397)" fill="rgb(195,22,22)"></path>
<path d="M0 0l23.2535 0l0 15.305l-23.2535 0Z" transform="translate(803.8751 319.3148)" fill="rgb(195,22,22)"></path>
<path d="M0 0l23.2535 0l0 15.1274l-23.2535 0Z" transform="translate(803.8751 335.6198)" fill="rgb(195,22,22)"></path>
<path d="M0 0l15.7781 0l0 21.4568l-15.7781 0Z" transform="translate(828.1285 319.3148)" fill="rgb(195,22,22)"></path>
<path d="M0 0l12.7934 0l0 21.4568l-12.7934 0Z" transform="translate(844.9066 319.3148)" fill="rgb(195,22,22)"></path>
<path d="M0 0l29.5715 0l0 8.9756l-29.5715 0Z" transform="translate(828.1285 341.7716)" fill="rgb(195,22,22)"></path>
<path d="M0 0l100.314 0l0 85.0534l-100.314 0Z" transform="translate(466.5435 355.7472)" fill="rgb(41,138,175)"></path>
<path d="M0 0l100.314 0l0 84.7974l-100.314 0Z" transform="translate(466.5435 441.8006)" fill="rgb(41,138,175)"></path>
<path d="M0 0l44.148 0l0 65.07l-44.148 0Z" transform="translate(567.8576 355.7472)" fill="rgb(41,138,175)"></path>
<path d="M0 0l39.6246 0l0 65.07l-39.6246 0Z" transform="translate(613.0056 355.7472)" fill="rgb(41,138,175)"></path>
<path d="M0 0l32.6588 0l0 65.07l-32.6588 0Z" transform="translate(653.6302 355.7472)" fill="rgb(41,138,175)"></path>
<path d="M0 0l24.5622 0l0 65.07l-24.5622 0Z" transform="translate(687.289 355.7472)" fill="rgb(41,138,175)"></path>
<path d="M0 0l48.703 0l0 28.2925l-48.703 0Z" transform="translate(567.8576 421.8172)" fill="rgb(41,138,175)"></path>
<path d="M0 0l48.703 0l0 26.3717l-48.703 0Z" transform="translate(567.8576 451.1097)" fill="rgb(41,138,175)"></path>
<path d="M0 0l48.703 0l0 24.2003l-48.703 0Z" transform="translate(567.8576 478.4814)" fill="rgb(41,138,175)"></path>
<path d="M0 0l48.703 0l0 22.9163l-48.703 0Z" transform="translate(567.8576 503.6817)" fill="rgb(41,138,175)"></path>
<path d="M0 0l32.5721 0l0 34.1913l-32.5721 0Z" transform="translate(617.5605 421.8172)" fill="rgb(41,138,175)"></path>
<path d="M0 0l21.5583 0l0 34.1913l-21.5583 0Z" transform="translate(651.1327 421.8172)" fill="rgb(41,138,175)"></path>
<path d="M0 0l20.4083 0l0 34.1913l-20.4083 0Z" transform="translate(673.691 421.8172)" fill="rgb(41,138,175)"></path>
<path d="M0 0l16.7518 0l0 34.1913l-16.7518 0Z" transform="translate(695.0993 421.8172)" fill="rgb(41,138,175)"></path>
<path d="M0 0l33.4072 0l0 17.1262l-33.4072 0Z" transform="translate(617.5605 457.0085)" fill="rgb(41,138,175)"></path>
<path d="M0 0l33.4072 0l0 16.9301l-33.4072 0Z" transform="translate(617.5605 475.1346)" fill="rgb(41,138,175)"></path>
<path d="M0 0l33.4072 0l0 16.4476l-33.4072 0Z" transform="translate(617.5605 493.0648)" fill="rgb(41,138,175)"></path>
<path d="M0 0l33.4072 0l0 16.0856l-33.4072 0Z" transform="translate(617.5605 510.5123)" fill="rgb(41,138,175)"></path>
<path d="M0 0l17.402 0l0 30.4384l-17.402 0Z" transform="translate(651.9678 457.0085)" fill="rgb(41,138,175)"></path>
<path d="M0 0l13.8866 0l0 30.4384l-13.8866 0Z" transform="translate(670.3697 457.0085)" fill="rgb(41,138,175)"></path>
<path d="M0 0l13.7546 0l0 30.4384l-13.7546 0Z" transform="translate(685.2564 457.0085)" fill="rgb(41,138,175)"></path>
<path d="M0 0l11.8401 0l0 30.4384l-11.8401 0Z" transform="translate(700.011 457.0085)" fill="rgb(41,138,175)"></path>
<path d="M0 0l27.5598 0l0 13.098l-27.5598 0Z" transform="translate(651.9678 488.4469)" fill="rgb(41,138,175)"></path>
<path d="M0 0l27.5598 0l0 12.5166l-27.5598 0Z" transform="translate(651.9678 502.5449)" fill="rgb(41,138,175)"></path>
<path d="M0 0l27.5598 0l0 10.5364l-27.5598 0Z" transform="translate(651.9678 516.0616)" fill="rgb(41,138,175)"></path>
<path d="M0 0l15.1746 0l0 19.2417l-15.1746 0Z" transform="translate(680.5275 488.4469)" fill="rgb(41,138,175)"></path>
<path d="M0 0l15.149 0l0 19.2417l-15.149 0Z" transform="translate(696.7021 488.4469)" fill="rgb(41,138,175)"></path>
<path d="M0 0l15.4362 0l0 17.9094l-15.4362 0Z" transform="translate(680.5275 508.6886)" fill="rgb(41,138,175)"></path>
<path d="M0 0l14.8874 0l0 17.9094l-14.8874 0Z" transform="translate(696.9637 508.6886)" fill="rgb(41,138,175)"></path>
<path d="M0 0l113.7589 0l0 94.5695l-113.7589 0Z" transform="translate(466.5435 531.5979)" fill="rgb(58,159,112)"></path>
<path d="M0 0l52.8277 0l0 49.6146l-52.8277 0Z" transform="translate(581.3024 531.5979)" fill="rgb(58,159,112)"></path>
<path d="M0 0l52.8277 0l0 43.9549l-52.8277 0Z" transform="translate(581.3024 582.2126)" fill="rgb(58,159,112)"></path>
<path d="M0 0l28.9464 0l0 36.71l-28.9464 0Z" transform="translate(635.1301 531.5979)" fill="rgb(58,159,112)"></path>
<path d="M0 0l22.9372 0l0 36.71l-22.9372 0Z" transform="translate(665.0765 531.5979)" fill="rgb(58,159,112)"></path>
<path d="M0 0l22.8374 0l0 36.71l-22.8374 0Z" transform="translate(689.0137 531.5979)" fill="rgb(58,159,112)"></path>
<path d="M0 0l32.1198 0l0 21.2864l-32.1198 0Z" transform="translate(635.1301 569.3079)" fill="rgb(58,159,112)"></path>
<path d="M0 0l32.1198 0l0 18.0925l-32.1198 0Z" transform="translate(635.1301 591.5943)" fill="rgb(58,159,112)"></path>
<path d="M0 0l32.1198 0l0 15.4806l-32.1198 0Z" transform="translate(635.1301 610.6868)" fill="rgb(58,159,112)"></path>
<path d="M0 0l15.6677 0l0 31.5506l-15.6677 0Z" transform="translate(668.2499 569.3079)" fill="rgb(58,159,112)"></path>
<path d="M0 0l13.6601 0l0 31.5506l-13.6601 0Z" transform="translate(684.9176 569.3079)" fill="rgb(58,159,112)"></path>
<path d="M0 0l12.2735 0l0 31.5506l-12.2735 0Z" transform="translate(699.5776 569.3079)" fill="rgb(58,159,112)"></path>
<path d="M0 0l29.4091 0l0 12.4043l-29.4091 0Z" transform="translate(668.2499 601.8585)" fill="rgb(58,159,112)"></path>
<path d="M0 0l29.4091 0l0 10.9046l-29.4091 0Z" transform="translate(668.2499 615.2628)" fill="rgb(58,159,112)"></path>
<path d="M0 0l13.1921 0l0 24.3089l-13.1921 0Z" transform="translate(698.659 601.8585)" fill="rgb(58,159,112)"></path>
<path d="M0 0l28.0016 0l0 63.9891l-28.0016 0Z" transform="translate(716.8511 355.7472)" fill="rgb(145,82,173)"></path>
<path d="M0 0l25.332 0l0 63.9891l-25.332 0Z" transform="translate(745.8527 355.7472)" fill="rgb(101,57,121)"></path>
<path d="M0 0l21.6101 0l0 23.8151l-21.6101 0Z" transform="translate(758.4638 420.7363)" fill="rgb(145,82,173)"></path>
<path d="M0 0l21.6101 0l0 18.3006l-21.6101 0Z" transform="translate(758.4638 445.5513)" fill="rgb(101,57,121)"></path>
<path d="M0 0l55.6801 0l0 93.7798l-55.6801 0Z" transform="translate(802.0199 355.7472)" fill="rgb(187,30,144)"></path>
<path d="M0 0l21.712 0l0 24.9077l-21.712 0Z" transform="translate(835.988 450.527)" fill="rgb(220,35,169)"></path>
<path d="M0 0l22.5252 0l0 58.8186l-22.5252 0Z" transform="translate(716.8511 480.4347)" fill="rgb(64,95,191)"></path>
<path d="M0 0l22.4257 0l0 58.8186l-22.4257 0Z" transform="translate(740.3763 480.4347)" fill="rgb(45,67,134)"></path>
<path d="M0 0l23.6195 0l0 43.405l-23.6195 0Z" transform="translate(763.802 480.4347)" fill="rgb(64,95,191)"></path>
<path d="M0 0l23.6195 0l0 14.4135l-23.6195 0Z" transform="translate(763.802 524.8398)" fill="rgb(51,76,154)"></path>
<path d="M0 0l52.6266 0l0 18.5016l-52.6266 0Z" transform="translate(716.8511 540.2533)" fill="rgb(64,95,191)"></path>
<path d="M0 0l16.9438 0l0 18.5016l-16.9438 0Z" transform="translate(770.4777 540.2533)" fill="rgb(51,76,153)"></path>
<path d="M0 0l25.7085 0l0 41.6787l-25.7085 0Z" transform="translate(792.4215 480.4347)" fill="rgb(91,158,58)"></path>
<path d="M0 0l21.213 0l0 41.6787l-21.213 0Z" transform="translate(819.13 480.4347)" fill="rgb(91,158,58)"></path>
<path d="M0 0l16.3569 0l0 41.6787l-16.3569 0Z" transform="translate(841.3431 480.4347)" fill="rgb(91,158,58)"></path>
<path d="M0 0l36.6614 0l0 17.7975l-36.6614 0Z" transform="translate(792.4215 523.1134)" fill="rgb(91,158,58)"></path>
<path d="M0 0l36.6614 0l0 16.844l-36.6614 0Z" transform="translate(792.4215 541.9109)" fill="rgb(91,158,58)"></path>
<path d="M0 0l13.7846 0l0 35.6414l-13.7846 0Z" transform="translate(830.0829 523.1134)" fill="rgb(91,158,58)"></path>
<path d="M0 0l12.8325 0l0 35.6414l-12.8325 0Z" transform="translate(844.8675 523.1134)" fill="rgb(91,158,58)"></path>
<path d="M0 0l17.4737 0l0 45.6347l-17.4737 0Z" transform="translate(789.833 563.7549)" fill="rgb(195,22,22)"></path>
<path d="M0 0l14.3004 0l0 45.6347l-14.3004 0Z" transform="translate(808.3067 563.7549)" fill="rgb(195,22,22)"></path>
<path d="M0 0l15.9143 0l0 17.2939l-15.9143 0Z" transform="translate(789.833 610.3896)" fill="rgb(195,22,22)"></path>
<path d="M0 0l15.8598 0l0 17.2939l-15.8598 0Z" transform="translate(806.7473 610.3896)" fill="rgb(195,22,22)"></path>
<path d="M0 0l30.0929 0l0 63.9286l-30.0929 0Z" transform="translate(827.6071 563.7549)" fill="rgb(49,162,206)"></path>
<path d="M0 0l45.6026 0l0 42.3323l-45.6026 0Z" transform="translate(716.8511 632.6835)" fill="rgb(58,159,112)"></path>
<path d="M0 0l45.6026 0l0 34.5842l-45.6026 0Z" transform="translate(716.8511 680.0158)" fill="rgb(213,65,4)"></path>
<path d="M0 0l40.0031 0l0 38.7272l-40.0031 0Z" transform="translate(767.4537 632.6835)" fill="rgb(123,69,147)"></path>
<path d="M0 0l40.0031 0l0 38.1894l-40.0031 0Z" transform="translate(767.4537 676.4106)" fill="rgb(187,30,144)"></path>
<path d="M0 0l22.8942 0l0 26.8598l-22.8942 0Z" transform="translate(812.4569 632.6835)" fill="rgb(54,81,163)"></path>
<path d="M0 0l22.8942 0l0 14.4345l-22.8942 0Z" transform="translate(812.4569 660.5433)" fill="rgb(64,95,191)"></path>
<path d="M0 0l17.3489 0l0 21.2201l-17.3489 0Z" transform="translate(840.3511 632.6835)" fill="rgb(107,186,69)"></path>
<path d="M0 0l17.3489 0l0 20.0742l-17.3489 0Z" transform="translate(840.3511 654.9036)" fill="rgb(107,186,69)"></path>
<text dominant-baseline="central" text-anchor="middle" style="font-size:12px;font-family:sans-serif;" transform="translate(204.3953 233.1786)" fill="#fff">Ting-Ting.SpeechVoice</text>
<text dominant-baseline="central" text-anchor="middle" style="font-size:12px;font-family:sans-serif;" transform="translate(388.017 233.1786)" fill="#fff">Alex.SpeechVoice</text>
<text dominant-baseline="central" text-anchor="middle" style="font-size:12px;font-family:sans-serif;" transform="translate(265.2908 453.9087)" fill="#fff">Kyoko.SpeechVoice</text>
<text dominant-baseline="central" text-anchor="middle" style="font-size:12px;font-family:sans-serif;" transform="translate(448.9126 447.8815)" fill="#fff">Vi</text>
<text dominant-baseline="central" text-anchor="middle" style="font-size:12px;font-family:sans-serif;" transform="translate(158.0734 585.7233)" fill="#fff">Versions</text>
<text dominant-baseline="central" text-anchor="middle" style="font-size:12px;font-family:sans-serif;" transform="translate(158.0734 679.7)" fill="#fff">Versions</text>
<text dominant-baseline="central" text-anchor="middle" style="font-size:12px;font-family:sans-serif;" transform="translate(267.4965 574.9512)" fill="#fff">Versions</text>
<text dominant-baseline="central" text-anchor="middle" style="font-size:12px;font-family:sans-serif;" transform="translate(267.4965 650.1528)" fill="#fff">Versions</text>
<text dominant-baseline="central" text-anchor="middle" style="font-size:12px;font-family:sans-serif;" transform="translate(267.4965 696.325)" fill="#fff">Versions</text>
<text dominant-baseline="central" text-anchor="middle" style="font-size:12px;font-family:sans-serif;" transform="translate(339.2006 556.1326)" fill="#fff">Versi...</text>
<text dominant-baseline="central" text-anchor="middle" style="font-size:12px;font-family:sans-serif;" transform="translate(390.0217 556.1326)" fill="#fff">Versi...</text>
<text dominant-baseline="central" text-anchor="middle" style="font-size:12px;font-family:sans-serif;" transform="translate(438.6659 556.1326)" fill="#fff">Vers...</text>
<text dominant-baseline="central" text-anchor="middle" style="font-size:12px;font-family:sans-serif;" transform="translate(338.8908 605.1188)" fill="#fff">Versi...</text>
<text dominant-baseline="central" text-anchor="middle" style="font-size:12px;font-family:sans-serif;" transform="translate(338.8908 641.5921)" fill="#fff">Versi...</text>
<text dominant-baseline="central" text-anchor="middle" style="font-size:12px;font-family:sans-serif;" transform="translate(338.8908 672.9713)" fill="#fff">Versi...</text>
<text dominant-baseline="central" text-anchor="middle" style="font-size:12px;font-family:sans-serif;" transform="translate(338.8908 701.4888)" fill="#fff">Versi...</text>
<text dominant-baseline="central" text-anchor="middle" style="font-size:12px;font-family:sans-serif;" transform="translate(377.9998 608.8144)" fill="#fff">Ve</text>
<text dominant-baseline="central" text-anchor="middle" style="font-size:12px;font-family:sans-serif;" transform="translate(404.0976 608.8144)" fill="#fff">V</text>
<text dominant-baseline="central" text-anchor="middle" style="font-size:12px;font-family:sans-serif;" transform="translate(428.1501 608.8144)" fill="#fff">V</text>
<text dominant-baseline="central" text-anchor="middle" style="font-size:12px;font-family:sans-serif;" transform="translate(451.0062 608.8144)" fill="#fff">V</text>
<text dominant-baseline="central" text-anchor="middle" style="font-size:12px;font-family:sans-serif;" transform="translate(382.2113 646.2014)" fill="#fff">Ve...</text>
<text dominant-baseline="central" text-anchor="middle" style="font-size:12px;font-family:sans-serif;" transform="translate(527.7572 133.8082)" fill="#fff">Versions</text>
<text dominant-baseline="central" text-anchor="middle" style="font-size:12px;font-family:sans-serif;" transform="translate(626.2985 133.8082)" fill="#fff">Versions</text>
<text dominant-baseline="central" text-anchor="middle" style="font-size:12px;font-family:sans-serif;" transform="translate(679.2425 133.8082)" fill="#fff">Ver</text>
<text dominant-baseline="central" text-anchor="middle" style="font-size:12px;font-family:sans-serif;" transform="translate(499.5289 212.2208)" fill="#fff">Versions</text>
<text dominant-baseline="central" text-anchor="middle" style="font-size:12px;font-family:sans-serif;" transform="translate(499.5289 258.5513)" fill="#fff">Versions</text>
<text dominant-baseline="central" text-anchor="middle" style="font-size:12px;font-family:sans-serif;" transform="translate(499.5289 300.06)" fill="#fff">Versions</text>
<text dominant-baseline="central" text-anchor="middle" style="font-size:12px;font-family:sans-serif;" transform="translate(499.5289 334.9949)" fill="#fff">Versions</text>
<text dominant-baseline="central" text-anchor="middle" style="font-size:12px;font-family:sans-serif;" transform="translate(552.0498 216.842)" fill="#fff">Ve...</text>
<text dominant-baseline="central" text-anchor="middle" style="font-size:12px;font-family:sans-serif;" transform="translate(589.6871 216.842)" fill="#fff">Ve...</text>
<text dominant-baseline="central" text-anchor="middle" style="font-size:12px;font-family:sans-serif;" transform="translate(625.5017 216.842)" fill="#fff">Ver</text>
<text dominant-baseline="central" text-anchor="middle" style="font-size:12px;font-family:sans-serif;" transform="translate(656.6139 216.842)" fill="#fff">Ve</text>
<text dominant-baseline="central" text-anchor="middle" style="font-size:12px;font-family:sans-serif;" transform="translate(682.9361 216.842)" fill="#fff">V</text>
<text dominant-baseline="central" text-anchor="middle" style="font-size:12px;font-family:sans-serif;" transform="translate(554.8204 259.5264)" fill="#fff">Ver...</text>
<text dominant-baseline="central" text-anchor="middle" style="font-size:12px;font-family:sans-serif;" transform="translate(554.8204 288.3402)" fill="#fff">Ver...</text>
<text dominant-baseline="central" text-anchor="middle" style="font-size:12px;font-family:sans-serif;" transform="translate(554.8204 315.2314)" fill="#fff">Ver...</text>
<text dominant-baseline="central" text-anchor="middle" style="font-size:12px;font-family:sans-serif;" transform="translate(554.8204 339.5574)" fill="#fff">Ver...</text>
<text dominant-baseline="central" text-anchor="middle" style="font-size:12px;font-family:sans-serif;" transform="translate(595.9463 257.779)" fill="#fff">Ve...</text>
<text dominant-baseline="central" text-anchor="middle" style="font-size:12px;font-family:sans-serif;" transform="translate(625.7844 261.2311)" fill="#fff">V</text>
<text dominant-baseline="central" text-anchor="middle" style="font-size:12px;font-family:sans-serif;" transform="translate(646.2306 261.2311)" fill="#fff">V</text>
<text dominant-baseline="central" text-anchor="middle" style="font-size:12px;font-family:sans-serif;" transform="translate(666.0383 261.2311)" fill="#fff">V</text>
<text dominant-baseline="central" text-anchor="middle" style="font-size:12px;font-family:sans-serif;" transform="translate(685.6385 261.2311)" fill="#fff">V</text>
<text dominant-baseline="central" text-anchor="middle" style="font-size:12px;font-family:sans-serif;" transform="translate(778.7794 143.4385)" fill="#fff">Contents</text>
<text dominant-baseline="central" text-anchor="middle" style="font-size:12px;font-family:sans-serif;" transform="translate(737.166 235.8105)" fill="#fff">Contents</text>
<text dominant-baseline="central" text-anchor="middle" style="font-size:12px;font-family:sans-serif;" transform="translate(737.166 285.9626)" fill="#fff">Contents</text>
<text dominant-baseline="central" text-anchor="middle" style="font-size:12px;font-family:sans-serif;" transform="translate(737.166 329.7642)" fill="#fff">Contents</text>
<text dominant-baseline="central" text-anchor="middle" style="font-size:12px;font-family:sans-serif;" transform="translate(785.593 231.4671)" fill="#fff">R</text>
<text dominant-baseline="central" text-anchor="middle" style="font-size:12px;font-family:sans-serif;" transform="translate(824.6525 231.4671)" fill="#fff">C</text>
<text dominant-baseline="central" text-anchor="middle" style="font-size:12px;font-family:sans-serif;" transform="translate(847.403 231.4671)" fill="#fff">C</text>
<text dominant-baseline="central" text-anchor="middle" style="font-size:12px;font-family:sans-serif;" transform="translate(787.0644 275.3984)" fill="#fff">C</text>
<text dominant-baseline="central" text-anchor="middle" style="font-size:12px;font-family:sans-serif;" transform="translate(810.0522 275.3984)" fill="#fff">C</text>
<text dominant-baseline="central" text-anchor="middle" style="font-size:12px;font-family:sans-serif;" transform="translate(516.7006 398.2739)" fill="#fff">Contents</text>
<text dominant-baseline="central" text-anchor="middle" style="font-size:12px;font-family:sans-serif;" transform="translate(516.7006 484.1993)" fill="#fff">Contents</text>
<text dominant-baseline="central" text-anchor="middle" style="font-size:12px;font-family:sans-serif;" transform="translate(589.9316 388.2822)" fill="#fff">Con...</text>
<text dominant-baseline="central" text-anchor="middle" style="font-size:12px;font-family:sans-serif;" transform="translate(632.8179 388.2822)" fill="#fff">Co...</text>
<text dominant-baseline="central" text-anchor="middle" style="font-size:12px;font-family:sans-serif;" transform="translate(669.9596 388.2822)" fill="#fff">Con</text>
<text dominant-baseline="central" text-anchor="middle" style="font-size:12px;font-family:sans-serif;" transform="translate(699.57 388.2822)" fill="#fff">C</text>
<text dominant-baseline="central" text-anchor="middle" style="font-size:12px;font-family:sans-serif;" transform="translate(592.209 435.9634)" fill="#fff">Cont...</text>
<text dominant-baseline="central" text-anchor="middle" style="font-size:12px;font-family:sans-serif;" transform="translate(592.209 464.2955)" fill="#fff">Cont...</text>
<text dominant-baseline="central" text-anchor="middle" style="font-size:12px;font-family:sans-serif;" transform="translate(592.209 490.5815)" fill="#fff">Cont...</text>
<text dominant-baseline="central" text-anchor="middle" style="font-size:12px;font-family:sans-serif;" transform="translate(592.209 515.1398)" fill="#fff">Cont...</text>
<text dominant-baseline="central" text-anchor="middle" style="font-size:12px;font-family:sans-serif;" transform="translate(633.8466 438.9128)" fill="#fff">Con</text>
<text dominant-baseline="central" text-anchor="middle" style="font-size:12px;font-family:sans-serif;" transform="translate(661.9118 438.9128)" fill="#fff">C</text>
<text dominant-baseline="central" text-anchor="middle" style="font-size:12px;font-family:sans-serif;" transform="translate(683.8952 438.9128)" fill="#fff">C</text>
<text dominant-baseline="central" text-anchor="middle" style="font-size:12px;font-family:sans-serif;" transform="translate(523.423 578.8827)" fill="#fff">Contents</text>
<text dominant-baseline="central" text-anchor="middle" style="font-size:12px;font-family:sans-serif;" transform="translate(607.7163 556.4053)" fill="#fff">Cont...</text>
<text dominant-baseline="central" text-anchor="middle" style="font-size:12px;font-family:sans-serif;" transform="translate(607.7163 604.19)" fill="#fff">Cont...</text>
<text dominant-baseline="central" text-anchor="middle" style="font-size:12px;font-family:sans-serif;" transform="translate(649.6033 549.9529)" fill="#fff">Co</text>
<text dominant-baseline="central" text-anchor="middle" style="font-size:12px;font-family:sans-serif;" transform="translate(676.5451 549.9529)" fill="#fff">C</text>
<text dominant-baseline="central" text-anchor="middle" style="font-size:12px;font-family:sans-serif;" transform="translate(700.4324 549.9529)" fill="#fff">C</text>
<text dominant-baseline="central" text-anchor="middle" style="font-size:12px;font-family:sans-serif;" transform="translate(589.1973 672.8837)" fill="#fff">Fonts</text>
<text dominant-baseline="central" text-anchor="middle" style="font-size:12px;font-family:sans-serif;" transform="translate(730.8519 387.7417)" fill="#fff">Ha</text>
<text dominant-baseline="central" text-anchor="middle" style="font-size:12px;font-family:sans-serif;" transform="translate(758.5187 387.7417)" fill="#fff">H</text>
<text dominant-baseline="central" text-anchor="middle" style="font-size:12px;font-family:sans-serif;" transform="translate(784.6023 387.7417)" fill="#fff">de</text>
<text dominant-baseline="central" text-anchor="middle" style="font-size:12px;font-family:sans-serif;" transform="translate(737.1574 435.5029)" fill="#fff">fr</text>
<text dominant-baseline="central" text-anchor="middle" style="font-size:12px;font-family:sans-serif;" transform="translate(737.1574 463.3521)" fill="#fff">es</text>
<text dominant-baseline="central" text-anchor="middle" style="font-size:12px;font-family:sans-serif;" transform="translate(769.2688 432.6438)" fill="#fff">G</text>
<text dominant-baseline="central" text-anchor="middle" style="font-size:12px;font-family:sans-serif;" transform="translate(789.0469 442.2941)" fill="#fff">i</text>
<text dominant-baseline="central" text-anchor="middle" style="font-size:12px;font-family:sans-serif;" transform="translate(829.86 402.6371)" fill="#fff">1.6.0....</text>
<text dominant-baseline="central" text-anchor="middle" style="font-size:12px;font-family:sans-serif;" transform="translate(818.504 462.9809)" fill="#fff">Ext</text>
<text dominant-baseline="central" text-anchor="middle" style="font-size:12px;font-family:sans-serif;" transform="translate(846.844 462.9809)" fill="#fff">C</text>
<text dominant-baseline="central" text-anchor="middle" style="font-size:12px;font-family:sans-serif;" transform="translate(728.1137 509.844)" fill="#fff">5.</text>
<text dominant-baseline="central" text-anchor="middle" style="font-size:12px;font-family:sans-serif;" transform="translate(751.5891 509.844)" fill="#fff">5.</text>
<text dominant-baseline="central" text-anchor="middle" style="font-size:12px;font-family:sans-serif;" transform="translate(775.6117 502.1373)" fill="#fff">d</text>
<text dominant-baseline="central" text-anchor="middle" style="font-size:12px;font-family:sans-serif;" transform="translate(805.2758 501.2741)" fill="#fff">Co</text>
<text dominant-baseline="central" text-anchor="middle" style="font-size:12px;font-family:sans-serif;" transform="translate(829.7365 501.2741)" fill="#fff">C</text>
<text dominant-baseline="central" text-anchor="middle" style="font-size:12px;font-family:sans-serif;" transform="translate(750.8421 595.7192)" fill="#fff">Composi...</text>
<text dominant-baseline="central" text-anchor="middle" style="font-size:12px;font-family:sans-serif;" transform="translate(842.6536 595.7192)" fill="#fff">Sta</text>
<text dominant-baseline="central" text-anchor="middle" style="font-size:12px;font-family:sans-serif;" transform="translate(739.6524 653.8496)" fill="#fff">Con...</text>
<text dominant-baseline="central" text-anchor="middle" style="font-size:12px;font-family:sans-serif;" transform="translate(739.6524 697.3079)" fill="#fff">Con...</text>
<text dominant-baseline="central" text-anchor="middle" style="font-size:12px;font-family:sans-serif;" transform="translate(787.4553 652.0471)" fill="#fff">Co...</text>
<text dominant-baseline="central" text-anchor="middle" style="font-size:12px;font-family:sans-serif;" transform="translate(787.4553 695.5053)" fill="#fff">Co...</text>
<text dominant-baseline="central" text-anchor="middle" style="font-size:12px;font-family:sans-serif;" transform="translate(823.904 646.1134)" fill="#fff">C</text>
<polygon points="0 0 77.4 0 77.4 22 0 22" transform="translate(437.8232 772)" fill="rgb(0,0,0)" fill-opacity="0.7"></polygon>
<text dominant-baseline="central" text-anchor="middle" style="font-size:12px;font-family:sans-serif;" xml:space="preserve" transform="translate(476.5 783)" fill="#fff">Disk Usage</text>
<path d="M-53.5244 -5l107.0488 0l0 28l-107.0488 0Z" transform="translate(476.5 5)" fill="rgb(0,0,0)" fill-opacity="0" stroke="#ccc" stroke-width="0"></path>
<text dominant-baseline="central" text-anchor="middle" style="font-size:18px;font-family:sans-serif;font-weight:bold;" xml:space="preserve" y="9" transform="translate(476.5 5)" fill="#464646">Disk Usage</text>
</svg>