<svg width="1000" height="600" xmlns="http://www.w3.org/2000/svg" xmlns:xlink="http://www.w3.org/1999/xlink" version="1.1" baseProfile="full" viewBox="0 0 1000 600">
<rect width="1000" height="600" x="0" y="0" id="0" fill="#FFFFFF"></rect>
<polyline points="669.7 222 682.7 214.5 697.7 214.5" fill="none" stroke="#009bd7"></polyline>
<polyline points="500 516 500 531 485 531" fill="none" stroke="#f0a82d"></polyline>
<polyline points="330.3 222 317.3 214.5 302.3 214.5" fill="none" stroke="#e95000"></polyline>
<path d="M500 124A196 196 0 0 1 669.741 418L560.6218 355A70 70 0 0 0 500 250Z" fill="rgb(0,155,215)" stroke="#FFFFFF" stroke-width="2" stroke-linejoin="round"></path>
<path d="M669.741 418A196 196 0 0 1 330.259 418L439.3782 355A70 70 0 0 0 560.6218 355Z" fill="#f0a82d" stroke="#FFFFFF" stroke-width="2" stroke-linejoin="round"></path>
<path d="M330.259 418A196 196 0 0 1 500 124L500 250A70 70 0 0 0 439.3782 355Z" fill="rgb(233,80,0)" stroke="#FFFFFF" stroke-width="2" stroke-linejoin="round"></path>
<text dominant-baseline="central" text-anchor="start" style="font-size:12px;font-family:sans-serif;" transform="translate(702.7314 214.5)" fill="#333" stroke="rgb(255,255,255)" stroke-width="2" paint-order="stroke" stroke-miterlimit="2">Premiere_Year</text>
<text dominant-baseline="central" text-anchor="end" style="font-size:12px;font-family:sans-serif;" transform="translate(480 531)" fill="#333" stroke="rgb(255,255,255)" stroke-width="2" paint-order="stroke" stroke-miterlimit="2">Seasons</text>
<text dominant-baseline="central" text-anchor="end" style="font-size:12px;font-family:sans-serif;" transform="translate(297.2686 214.5)" fill="#333" stroke="rgb(255,255,255)" stroke-width="2" paint-order="stroke" stroke-miterlimit="2">Episodes</text>
<path d="M-5 -5l298.5667 0l0 26l-298.5667 0Z" transform="translate(355.7167 575)" fill="rgb(0,0,0)" fill-opacity="0" stroke="#ccc" stroke-width="0"></path>
<path d="M3.5 0L21.5 0A3.5 3.5 0 0 1 25 3.5L25 10.5A3.5 3.5 0 0 1 21.5 14L3.5 14A3.5 3.5 0 0 1 0 10.5L0 3.5A3.5 3.5 0 0 1 3.5 0" transform="translate(356.7167 576)" fill="#009bd7" stroke="#FFFFFF" stroke-width="2" stroke-linecap="butt" stroke-miterlimit="10" stroke-linejoin="round"></path>
<text dominant-baseline="central" text-anchor="start" style="font-size:12px;font-family:sans-serif;" x="30" y="7" transform="translate(356.7167 576)" fill="#333">Premiere_Year</text>
<path d="M3.5 0L21.5 0A3.5 3.5 0 0 1 25 3.5L25 10.5A3.5 3.5 0 0 1 21.5 14L3.5 14A3.5 3.5 0 0 1 0 10.5L0 3.5A3.5 3.5 0 0 1 3.5 0" transform="translate(477.2833 576)" fill="#f0a82d" stroke="#FFFFFF" stroke-width="2" stroke-linecap="butt" stroke-miterlimit="10" stroke-linejoin="round"></path>
<text dominant-baseline="central" text-anchor="start" style="font-size:12px;font-family:sans-serif;" x="30" y="7" transform="translate(477.2833 576)" fill="#333">Seasons</text>
<path d="M3.5 0L21.5 0A3.5 3.5 0 0 1 25 3.5L25 10.5A3.5 3.5 0 0 1 21.5 14L3.5 14A3.5 3.5 0 0 1 0 10.5L0 3.5A3.5 3.5 0 0 1 3.5 0" transform="translate(564.95 576)" fill="#e95000" stroke="#FFFFFF" stroke-width="2" stroke-linecap="butt" stroke-miterlimit="10" stroke-linejoin="round"></path>
<text dominant-baseline="central" text-anchor="start" style="font-size:12px;font-family:sans-serif;" x="30" y="7" transform="translate(564.95 576)" fill="#333">Episodes</text>
</svg>