<svg width="968" height="746" xmlns="http://www.w3.org/2000/svg" xmlns:xlink="http://www.w3.org/1999/xlink" version="1.1" baseProfile="full" viewBox="0 0 968 746">
<rect width="968" height="746" x="0" y="0" id="0" fill="none"></rect>
<polyline points="579.7 142 585.4 128.2 600.4 128.2" fill="none" stroke="#5470c6"></polyline>
<polyline points="705.7 281.2 728.8 271.6 743.8 271.6" fill="none" stroke="#91cc75"></polyline>
<polyline points="678 453.4 728.8 474.4 743.8 474.4" fill="none" stroke="#fac858"></polyline>
<polyline points="560.5 557.8 585.4 617.8 600.4 617.8" fill="none" stroke="#ee6666"></polyline>
<polyline points="411.3 548.5 382.6 617.8 367.6 617.8" fill="none" stroke="#73c0de"></polyline>
<polyline points="317.7 441.9 239.2 474.4 224.2 474.4" fill="none" stroke="#3ba272"></polyline>
<polyline points="336.2 311.8 239.2 271.6 224.2 271.6" fill="none" stroke="#fc8452"></polyline>
<polyline points="430.4 243.7 382.6 128.2 367.6 128.2" fill="none" stroke="#9a60b4"></polyline>
<path d="M484 131.1323A8 8 0 0 1 492.2645 123.1366A250 250 0 0 1 654.8362 190.4761A8 8 0 0 1 655.0263 201.9737L524.6202 332.3798A8 8 0 0 1 514.1408 333.106A50 50 0 0 0 490.8966 323.4779A8 8 0 0 1 484 315.5544Z" fill="#5470c6"></path>
<path d="M647.9512 209.0488A8 8 0 0 1 659.4566 209.2472A240 240 0 0 1 723.8573 364.7241A8 8 0 0 1 715.862 373L541.4456 373A8 8 0 0 1 533.5221 366.1034A50 50 0 0 0 523.894 342.8592A8 8 0 0 1 524.6202 332.3798Z" fill="#91cc75"></path>
<path d="M685.8415 373A8 8 0 0 1 693.8352 381.3168A210 210 0 0 1 638.2568 515.495A8 8 0 0 1 626.7235 515.7235L524.6202 413.6202A8 8 0 0 1 523.894 403.1408A50 50 0 0 0 533.5221 379.8966A8 8 0 0 1 541.4456 373Z" fill="#fac858"></path>
<path d="M619.6466 508.6466A8 8 0 0 1 619.406 520.1911A200 200 0 0 1 492.3333 572.8263A8 8 0 0 1 484 564.8333L484 430.4456A8 8 0 0 1 490.8966 422.5221A50 50 0 0 0 514.1408 412.894A8 8 0 0 1 524.6202 413.6202Z" fill="#ee6666"></path>
<path d="M484 554.8241A8 8 0 0 1 475.6484 562.8164A190 190 0 0 1 355.6851 513.1259A8 8 0 0 1 355.431 501.569L443.3798 413.6202A8 8 0 0 1 453.8592 412.894A50 50 0 0 0 477.1034 422.5221A8 8 0 0 1 484 430.4456Z" fill="#73c0de"></path>
<path d="M362.5093 494.4907A8 8 0 0 1 350.9386 494.2215A180 180 0 0 1 304.1948 381.3721A8 8 0 0 1 312.1861 373L426.5544 373A8 8 0 0 1 434.4779 379.8966A50 50 0 0 0 444.106 403.1408A8 8 0 0 1 443.3798 413.6202Z" fill="#3ba272"></path>
<path d="M332.2107 373A8 8 0 0 1 324.2218 364.5789A160 160 0 0 1 365.0651 265.9743A8 8 0 0 1 376.6687 265.6687L443.3798 332.3798A8 8 0 0 1 444.106 342.8592A50 50 0 0 0 434.4779 366.1034A8 8 0 0 1 426.5544 373Z" fill="#fc8452"></path>
<path d="M390.8335 279.8335A8 8 0 0 1 391.1867 268.1873A140 140 0 0 1 475.5152 233.2574A8 8 0 0 1 484 241.2426L484 315.5544A8 8 0 0 1 477.1034 323.4779A50 50 0 0 0 453.8592 333.106A8 8 0 0 1 443.3798 332.3798Z" fill="#9a60b4"></path>
<text dominant-baseline="central" text-anchor="start" style="font-size:12px;font-family:sans-serif;" xml:space="preserve" transform="translate(605.4111 128.1719)" fill="#333" stroke="rgb(255,255,255)" stroke-width="2" paint-order="stroke" stroke-miterlimit="2">rose 1</text>
<text dominant-baseline="central" text-anchor="start" style="font-size:12px;font-family:sans-serif;" xml:space="preserve" transform="translate(748.8281 271.5889)" fill="#333" stroke="rgb(255,255,255)" stroke-width="2" paint-order="stroke" stroke-miterlimit="2">rose 2</text>
<text dominant-baseline="central" text-anchor="start" style="font-size:12px;font-family:sans-serif;" xml:space="preserve" transform="translate(748.8281 474.4111)" fill="#333" stroke="rgb(255,255,255)" stroke-width="2" paint-order="stroke" stroke-miterlimit="2">rose 3</text>
<text dominant-baseline="central" text-anchor="start" style="font-size:12px;font-family:sans-serif;" xml:space="preserve" transform="translate(605.4111 617.8281)" fill="#333" stroke="rgb(255,255,255)" stroke-width="2" paint-order="stroke" stroke-miterlimit="2">rose 4</text>
<text dominant-baseline="central" text-anchor="end" style="font-size:12px;font-family:sans-serif;" xml:space="preserve" transform="translate(362.5889 617.8281)" fill="#333" stroke="rgb(255,255,255)" stroke-width="2" paint-order="stroke" stroke-miterlimit="2">rose 5</text>
<text dominant-baseline="central" text-anchor="end" style="font-size:12px;font-family:sans-serif;" xml:space="preserve" transform="translate(219.1719 474.4111)" fill="#333" stroke="rgb(255,255,255)" stroke-width="2" paint-order="stroke" stroke-miterlimit="2">rose 6</text>
<text dominant-baseline="central" text-anchor="end" style="font-size:12px;font-family:sans-serif;" xml:space="preserve" transform="translate(219.1719 271.5889)" fill="#333" stroke="rgb(255,255,255)" stroke-width="2" paint-order="stroke" stroke-miterlimit="2">rose 7</text>
<text dominant-baseline="central" text-anchor="end" style="font-size:12px;font-family:sans-serif;" xml:space="preserve" transform="translate(362.5889 128.1719)" fill="#333" stroke="rgb(255,255,255)" stroke-width="2" paint-order="stroke" stroke-miterlimit="2">rose 8</text>
<path d="M-5 -5l586.6667 0l0 24l-586.6667 0Z" transform="translate(195.6667 727)" fill="rgb(0,0,0)" fill-opacity="0" stroke="#ccc" stroke-width="0"></path>
<path d="M3.5 0L21.5 0A3.5 3.5 0 0 1 25 3.5L25 10.5A3.5 3.5 0 0 1 21.5 14L3.5 14A3.5 3.5 0 0 1 0 10.5L0 3.5A3.5 3.5 0 0 1 3.5 0" transform="translate(195.6667 727)" fill="#5470c6"></path>
<text dominant-baseline="central" text-anchor="start" style="font-size:12px;font-family:sans-serif;" xml:space="preserve" x="30" y="7" transform="translate(195.6667 727)" fill="#333">rose 1</text>
<path d="M3.5 0L21.5 0A3.5 3.5 0 0 1 25 3.5L25 10.5A3.5 3.5 0 0 1 21.5 14L3.5 14A3.5 3.5 0 0 1 0 10.5L0 3.5A3.5 3.5 0 0 1 3.5 0" transform="translate(269 727)" fill="#91cc75"></path>
<text dominant-baseline="central" text-anchor="start" style="font-size:12px;font-family:sans-serif;" xml:space="preserve" x="30" y="7" transform="translate(269 727)" fill="#333">rose 2</text>
<path d="M3.5 0L21.5 0A3.5 3.5 0 0 1 25 3.5L25 10.5A3.5 3.5 0 0 1 21.5 14L3.5 14A3.5 3.5 0 0 1 0 10.5L0 3.5A3.5 3.5 0 0 1 3.5 0" transform="translate(342.3333 727)" fill="#fac858"></path>
<text dominant-baseline="central" text-anchor="start" style="font-size:12px;font-family:sans-serif;" xml:space="preserve" x="30" y="7" transform="translate(342.3333 727)" fill="#333">rose 3</text>
<path d="M3.5 0L21.5 0A3.5 3.5 0 0 1 25 3.5L25 10.5A3.5 3.5 0 0 1 21.5 14L3.5 14A3.5 3.5 0 0 1 0 10.5L0 3.5A3.5 3.5 0 0 1 3.5 0" transform="translate(415.6667 727)" fill="#ee6666"></path>
<text dominant-baseline="central" text-anchor="start" style="font-size:12px;font-family:sans-serif;" xml:space="preserve" x="30" y="7" transform="translate(415.6667 727)" fill="#333">rose 4</text>
<path d="M3.5 0L21.5 0A3.5 3.5 0 0 1 25 3.5L25 10.5A3.5 3.5 0 0 1 21.5 14L3.5 14A3.5 3.5 0 0 1 0 10.5L0 3.5A3.5 3.5 0 0 1 3.5 0" transform="translate(489 727)" fill="#73c0de"></path>
<text dominant-baseline="central" text-anchor="start" style="font-size:12px;font-family:sans-serif;" xml:space="preserve" x="30" y="7" transform="translate(489 727)" fill="#333">rose 5</text>
<path d="M3.5 0L21.5 0A3.5 3.5 0 0 1 25 3.5L25 10.5A3.5 3.5 0 0 1 21.5 14L3.5 14A3.5 3.5 0 0 1 0 10.5L0 3.5A3.5 3.5 0 0 1 3.5 0" transform="translate(562.3333 727)" fill="#3ba272"></path>
<text dominant-baseline="central" text-anchor="start" style="font-size:12px;font-family:sans-serif;" xml:space="preserve" x="30" y="7" transform="translate(562.3333 727)" fill="#333">rose 6</text>
<path d="M3.5 0L21.5 0A3.5 3.5 0 0 1 25 3.5L25 10.5A3.5 3.5 0 0 1 21.5 14L3.5 14A3.5 3.5 0 0 1 0 10.5L0 3.5A3.5 3.5 0 0 1 3.5 0" transform="translate(635.6667 727)" fill="#fc8452"></path>
<text dominant-baseline="central" text-anchor="start" style="font-size:12px;font-family:sans-serif;" xml:space="preserve" x="30" y="7" transform="translate(635.6667 727)" fill="#333">rose 7</text>
<path d="M3.5 0L21.5 0A3.5 3.5 0 0 1 25 3.5L25 10.5A3.5 3.5 0 0 1 21.5 14L3.5 14A3.5 3.5 0 0 1 0 10.5L0 3.5A3.5 3.5 0 0 1 3.5 0" transform="translate(709 727)" fill="#9a60b4"></path>
<text dominant-baseline="central" text-anchor="start" style="font-size:12px;font-family:sans-serif;" xml:space="preserve" x="30" y="7" transform="translate(709 727)" fill="#333">rose 8</text>
</svg>